<svg width="32" height="32" viewBox="0 0 32 32" fill="none" xmlns="http://www.w3.org/2000/svg">
<path d="M15.9993 9.33342C15.266 9.33342 14.666 9.93341 14.666 10.6667V14.6667H10.666C9.93268 14.6667 9.33268 15.2667 9.33268 16.0001C9.33268 16.7334 9.93268 17.3334 10.666 17.3334H14.666V21.3334C14.666 22.0667 15.266 22.6667 15.9993 22.6667C16.7327 22.6667 17.3327 22.0667 17.3327 21.3334V17.3334H21.3327C22.066 17.3334 22.666 16.7334 22.666 16.0001C22.666 15.2667 22.066 14.6667 21.3327 14.6667H17.3327V10.6667C17.3327 9.93341 16.7327 9.33342 15.9993 9.33342ZM15.9993 2.66675C8.63935 2.66675 2.66602 8.64008 2.66602 16.0001C2.66602 23.3601 8.63935 29.3334 15.9993 29.3334C23.3594 29.3334 29.3327 23.3601 29.3327 16.0001C29.3327 8.64008 23.3594 2.66675 15.9993 2.66675ZM15.9993 26.6667C10.1193 26.6667 5.33268 21.8801 5.33268 16.0001C5.33268 10.1201 10.1193 5.33341 15.9993 5.33341C21.8793 5.33341 26.666 10.1201 26.666 16.0001C26.666 21.8801 21.8793 26.6667 15.9993 26.6667Z" fill="inherit"/>
</svg>
