<svg width="32" height="32" viewBox="0 0 32 32" fill="none" xmlns="http://www.w3.org/2000/svg">
<path d="M9.33268 14.6667V17.3334H22.666V14.6667H9.33268ZM15.9993 2.66675C8.63935 2.66675 2.66602 8.64008 2.66602 16.0001C2.66602 23.3601 8.63935 29.3334 15.9993 29.3334C23.3594 29.3334 29.3327 23.3601 29.3327 16.0001C29.3327 8.64008 23.3594 2.66675 15.9993 2.66675ZM15.9993 26.6667C10.1193 26.6667 5.33268 21.8801 5.33268 16.0001C5.33268 10.1201 10.1193 5.33341 15.9993 5.33341C21.8793 5.33341 26.666 10.1201 26.666 16.0001C26.666 21.8801 21.8793 26.6667 15.9993 26.6667Z" fill="inherit"/>
</svg>
