<svg width="24" height="24" viewBox="0 0 24 24" fill="none" xmlns="http://www.w3.org/2000/svg">
<path fill-rule="evenodd" clip-rule="evenodd" d="M10.3236 2.685L9.50747 3.3191L10.1688 4.16705C10.5324 4.6334 10.7858 5.04771 10.7313 5.0881C10.6771 5.12824 10.0892 5.3582 9.42487 5.59905C7.76752 6.1997 5.62191 8.17957 4.75282 9.91016C4.14649 11.1179 3.91819 11.664 3.7915 13.4263C3.7915 15.3809 4.15003 15.9672 4.75282 17.168C5.64928 18.9532 6.90705 20.1663 8.73239 21.043C9.96026 21.6325 10.6905 22 12.5331 22C14.3721 22 15.3701 21.6273 16.5871 21.043C18.5174 19.8411 19.6968 18.3381 20.4666 16.7014C21.6547 14.6901 21.2746 11.4688 20.3133 9.91016C19.4442 8.17957 17.2986 6.1997 15.6413 5.59905C14.9769 5.3582 14.3891 5.12824 14.3348 5.0881C14.2804 5.04771 14.5343 4.63266 14.8984 4.16557L15.5609 3.31613L14.6974 2.67212C13.4891 1.77089 11.4927 1.77684 10.3236 2.685ZM15.3202 7.50411C16.499 8.09757 17.8601 9.4795 18.5174 10.7006C19.1642 11.9027 19.1642 14.95 18.5174 16.1521C17.8662 17.3621 16.6424 18.5782 15.4469 19.2034C14.6701 19.6098 13.9897 19.8411 12.5331 19.8411C10.374 19.8411 9.15756 19.2475 7.8106 17.8465C6.57867 16.1521 6.08205 15.4848 6.08205 13.4263C6.08205 11.3677 6.45375 10.4171 7.8106 9.00695C8.61203 8.17387 9.58779 7.57595 10.7579 7.20029C11.8028 6.86503 14.2282 6.95376 15.3202 7.50411Z" fill="inherit"/>
</svg>
