<svg width="24" height="24" viewBox="0 0 24 24" fill="none" xmlns="http://www.w3.org/2000/svg">
<path fill-rule="evenodd" clip-rule="evenodd" d="M10.3231 2.685L9.50699 3.3191L10.1683 4.16705C10.5319 4.6334 10.7853 5.04771 10.7308 5.0881C10.6766 5.12824 10.0887 5.3582 9.42438 5.59905C7.76703 6.1997 5.62142 8.17957 4.75233 9.91016C4.146 11.1179 3.9177 11.664 3.79102 13.4263C3.79102 15.3809 4.14955 15.9672 4.75233 17.168C5.64879 18.9532 6.90656 20.1663 8.7319 21.043C9.95977 21.6325 10.69 22 12.5326 22C14.3716 22 15.3697 21.6273 16.5866 21.043C18.5169 19.8411 19.6964 18.3381 20.4661 16.7014C21.6542 14.6901 21.2741 11.4688 20.3128 9.91016C19.4437 8.17957 17.2981 6.1997 15.6408 5.59905C14.9764 5.3582 14.3886 5.12824 14.3344 5.0881C14.2799 5.04771 14.5338 4.63266 14.8979 4.16557L15.5605 3.31613L14.6969 2.67212C13.4886 1.77089 11.4922 1.77684 10.3231 2.685ZM15.3197 7.50411C16.4985 8.09757 17.8596 9.4795 18.5169 10.7006C19.1638 11.9027 19.1638 14.95 18.5169 16.1521C17.8657 17.3621 16.6419 18.5782 15.4464 19.2034C14.6696 19.6098 13.9893 19.8411 12.5326 19.8411C10.3735 19.8411 9.15707 19.2475 7.81011 17.8465C6.57818 16.1521 6.08156 15.4848 6.08156 13.4263C6.08156 11.3677 6.45327 10.4171 7.81011 9.00695C8.61155 8.17387 9.58731 7.57595 10.7574 7.20029C11.8023 6.86503 14.2277 6.95376 15.3197 7.50411Z" fill="inherit"/>
</svg>
