<svg width="24" height="24" viewBox="0 0 24 24" fill="none" xmlns="http://www.w3.org/2000/svg">
<path d="M12.0007 8.69391C12.73 8.69391 13.4294 8.41009 13.9451 7.90489C14.4607 7.39969 14.7504 6.71449 14.7504 6.00003C14.7504 5.28557 14.4607 4.60037 13.9451 4.09517C13.4294 3.58997 12.73 3.30615 12.0007 3.30615C11.2714 3.30615 10.572 3.58997 10.0564 4.09517C9.54069 4.60037 9.25099 5.28557 9.25099 6.00003C9.25099 6.71449 9.54069 7.39969 10.0564 7.90489C10.572 8.41009 11.2714 8.69391 12.0007 8.69391ZM14.5005 11.4054C15.3514 11.2844 16.2478 11.1037 17.2402 10.8632C17.3684 10.833 17.4893 10.7783 17.5958 10.7022C17.7024 10.6261 17.7925 10.5301 17.861 10.4197C17.9296 10.3093 17.9751 10.1867 17.9951 10.059C18.015 9.93132 18.009 9.80102 17.9774 9.6756C17.9457 9.55019 17.8891 9.43214 17.8107 9.32827C17.7323 9.22439 17.6336 9.13674 17.5205 9.07035C17.4074 9.00396 17.282 8.96015 17.1515 8.94144C17.021 8.92273 16.8881 8.92949 16.7603 8.96134C14.8539 9.42321 13.4171 9.63089 12.0042 9.6255C10.5884 9.6206 9.148 9.40117 7.23018 8.95889C7.10161 8.9272 6.96788 8.92087 6.83679 8.94029C6.7057 8.9597 6.57985 9.00446 6.46658 9.07196C6.35331 9.13947 6.25487 9.22837 6.177 9.33349C6.09912 9.43861 6.04336 9.55785 6.01296 9.68428C5.98257 9.81071 5.97814 9.9418 5.99993 10.0699C6.02173 10.198 6.06932 10.3206 6.13992 10.4306C6.21053 10.5405 6.30275 10.6356 6.41122 10.7103C6.51969 10.785 6.64223 10.8378 6.77173 10.8657C7.75913 11.0934 8.65204 11.2707 9.50096 11.3922V12.6123H14.5005V11.4054Z" fill="inherit"/>
<path fill-rule="evenodd" clip-rule="evenodd" d="M13.3396 16.031C14.2145 15.6489 14.4995 14.8525 14.4995 14.542V13.5918H9.5V14.542C9.5 14.8525 9.78497 15.6489 10.6599 16.031C10.7599 16.0746 10.8729 16.1289 10.9739 16.1784L11.0339 16.2078C11.1578 16.2676 11.2783 16.3244 11.3998 16.3748C11.6533 16.4801 11.8513 16.5306 11.9998 16.5306C12.1482 16.5306 12.3457 16.4801 12.5997 16.3748C12.7212 16.3244 12.8417 16.2676 12.9662 16.2073L13.0257 16.1784L13.3396 16.031ZM13.3391 16.031C13.2391 16.0746 13.1266 16.1289 13.0257 16.1784L13.3391 16.031Z" fill="inherit"/>
<path d="M10.2188 16.9498C9.62788 16.6868 9.23092 16.2891 8.99195 15.8933C8.21602 16.555 7.78906 17.3872 7.78906 18.4843C7.78906 18.9222 7.88455 19.5795 8.13303 20.1119C8.3875 20.6571 8.72897 20.9387 9.16093 20.9387C9.62388 20.9387 10.0158 20.5909 10.0158 20.1442C10.0158 19.9454 9.93035 19.7573 9.79437 19.4781L9.78537 19.4595C9.66238 19.2068 9.4994 18.8727 9.4994 18.4848C9.4994 18.0602 9.71437 17.6096 9.96435 17.2447C10.0448 17.1271 10.1298 17.0321 10.2188 16.9498ZM13.7835 16.9498C14.3744 16.6868 14.7714 16.2886 15.0104 15.8933C15.7863 16.5545 16.2132 17.3872 16.2132 18.4843C16.2132 18.9222 16.1177 19.5795 15.8693 20.1119C15.6148 20.6571 15.2733 20.9387 14.8414 20.9387C14.3784 20.9387 13.9865 20.5909 13.9865 20.1442C13.9865 19.9454 14.0719 19.7573 14.2079 19.4781L14.2169 19.4595C14.3399 19.2068 14.5029 18.8727 14.5029 18.4848C14.5029 18.0602 14.2879 17.6096 14.038 17.2447C13.9648 17.1373 13.8794 17.0384 13.7835 16.9498Z" fill="inherit"/>
</svg>
