<svg width="24" height="24" viewBox="0 0 24 24" fill="none" xmlns="http://www.w3.org/2000/svg">
<path fill-rule="evenodd" clip-rule="evenodd" d="M5.39858 2.03796C5.22979 2.0999 5.06198 2.2716 5.01599 2.42937C4.98173 2.54684 4.99875 2.69492 5.10398 3.19375C5.91943 7.06061 7.48181 10.2327 9.23431 11.5797C9.89448 12.0871 10.4064 12.3315 11.1893 12.5131L11.3693 12.5548V13.1802C11.3693 13.6478 11.3559 13.8087 11.3164 13.8179C11.2873 13.8247 11.0938 13.868 10.8865 13.9142C10.1435 14.0798 9.24566 14.5698 8.74048 15.0854C8.24783 15.5882 7.86558 16.236 7.67829 16.8854C7.56658 17.2725 7.52652 18.1061 7.5994 18.5261C7.8876 20.1872 9.16792 21.4678 10.9755 21.9028C11.5168 22.0331 12.495 22.0323 13.0419 21.9011C14.8288 21.4725 16.1234 20.175 16.4095 18.5261C16.4824 18.1061 16.4423 17.2725 16.3306 16.8854C16.1433 16.236 15.7611 15.5882 15.2684 15.0854C14.7633 14.5698 13.8655 14.0798 13.1224 13.9142C12.9151 13.868 12.7212 13.8245 12.6915 13.8175C12.6499 13.8077 12.6402 13.6594 12.6492 13.1725L12.6608 12.5401L12.9798 12.4707C13.8252 12.2865 14.701 11.7534 15.4413 10.9723C16.9156 9.41667 18.1925 6.55068 18.9014 3.20631C19.0461 2.52357 19.0369 2.37635 18.8378 2.1844C18.5429 1.90012 18.0194 1.96057 17.8312 2.30061C17.7995 2.35786 17.7226 2.65105 17.6603 2.95214C17.1701 5.32051 16.2836 7.6601 15.3194 9.13028C13.4996 11.905 11.1179 12.1675 9.18672 9.80644C8.00181 8.35773 6.92009 5.74293 6.34504 2.9374C6.27119 2.57714 6.1981 2.33138 6.14153 2.2531C5.98367 2.03475 5.66146 1.94141 5.39858 2.03796ZM12.602 16.2289C13.9502 16.6483 14.3496 18.2135 13.3447 19.1395C12.9164 19.534 12.2776 19.7261 11.7066 19.6319C9.94423 19.3411 9.51676 17.2635 11.0364 16.3749C11.4272 16.1464 12.127 16.0812 12.602 16.2289ZM11.6759 17.4004C11.137 17.7038 11.3728 18.4759 12.0045 18.4759C12.2365 18.4759 12.3898 18.3927 12.5444 18.183C12.8111 17.8212 12.4983 17.3226 12.0045 17.3226C11.8889 17.3226 11.7596 17.3532 11.6759 17.4004Z" fill="inherit"/>
</svg>
