<svg width="24" height="24" viewBox="0 0 24 24" fill="none" xmlns="http://www.w3.org/2000/svg">
<path fill-rule="evenodd" clip-rule="evenodd" d="M4.58565 2.12384C3.95798 2.41392 3.09653 3.54265 2.96294 4.25006C2.87136 4.73477 2.69382 4.96623 2.41392 4.96623C2.07477 4.96623 2 5.14709 2 5.96821C2 6.94014 2.02198 6.9702 2.73023 6.9702C3.66774 6.9702 4.36501 6.30638 4.55376 5.23451C4.73562 4.20046 5.28162 3.72026 5.82461 4.11704C6.11528 4.32946 6.21612 4.80416 6.26524 6.19116C6.31825 7.69464 6.2562 8.09693 5.88817 8.64126C5.28916 9.52627 5.32428 10.6072 5.97651 11.3652C7.50032 13.1369 9.82331 10.664 8.48826 8.69111C8.17863 8.2332 8.06292 7.56939 8.00345 5.90659C7.93019 3.85527 7.88515 3.67642 7.259 2.94848C6.59319 2.17444 5.32364 1.78292 4.58565 2.12384ZM14.9282 2.12384C14.3006 2.41392 13.4391 3.54265 13.3055 4.25006C13.214 4.73477 13.0364 4.96623 12.7565 4.96623C12.4174 4.96623 12.3426 5.14709 12.3426 5.96821C12.3426 6.94014 12.3646 6.9702 13.0728 6.9702C14.0103 6.9702 14.7076 6.30638 14.8964 5.23451C15.0782 4.20046 15.6242 3.72026 16.1672 4.11704C16.4579 4.32946 16.5587 4.80416 16.6078 6.19116C16.6608 7.69464 16.5988 8.09693 16.2308 8.64126C15.6318 9.52627 15.6669 10.6072 16.3191 11.3652C17.8429 13.1369 20.1659 10.664 18.8309 8.69111C18.5212 8.2332 18.4055 7.56939 18.346 5.90659C18.2728 3.85527 18.2278 3.67642 17.6016 2.94848C16.9358 2.17444 15.6662 1.78292 14.9282 2.12384ZM3.69209 15.0344L2.69101 17.0825L4.29261 19.5414L5.8942 22H7.1713H8.44839L10.0528 19.5369L11.6574 17.074L10.6768 15.0905C10.1375 13.9999 9.67916 13.0808 9.65805 13.0485C9.63693 13.0162 9.2424 13.2133 8.78087 13.4869C7.71299 14.1199 6.62745 14.1186 5.55527 13.4831C5.09028 13.2076 4.70631 12.9831 4.70179 12.9841C4.69705 12.9854 4.24284 13.908 3.69209 15.0344ZM14.0347 15.0344L13.0336 17.0825L14.6352 19.5414L16.2368 22H17.5139H18.791L20.3954 19.5369L22 17.074L21.0194 15.0905C20.4801 13.9999 20.0218 13.0808 20.0006 13.0485C19.9795 13.0162 19.585 13.2133 19.1235 13.4869C18.0556 14.1199 16.97 14.1186 15.8979 13.4831C15.4329 13.2076 15.0489 12.9831 15.0444 12.9841C15.0396 12.9854 14.5854 13.908 14.0347 15.0344Z" fill="inherit"/>
</svg>
