<svg width="24" height="24" viewBox="0 0 24 24" fill="none" xmlns="http://www.w3.org/2000/svg">
<path fill-rule="evenodd" clip-rule="evenodd" d="M3.6665 13.3332V15.9998C3.6665 16.9203 4.4127 17.6665 5.33317 17.6665C5.51726 17.6665 5.6665 17.5173 5.6665 17.3332V11.9998C5.6665 11.8157 5.51726 11.6665 5.33317 11.6665C4.4127 11.6665 3.6665 12.4127 3.6665 13.3332ZM1.6665 11.9998C1.6665 6.29289 6.29289 1.6665 11.9998 1.6665C17.7068 1.6665 22.3332 6.29289 22.3332 11.9998V15.9998C22.3332 17.7176 21.152 19.1595 19.5575 19.5575C19.1595 21.152 17.7176 22.3332 15.9998 22.3332H12.6665C12.1142 22.3332 11.6665 21.8855 11.6665 21.3332C11.6665 20.7809 12.1142 20.3332 12.6665 20.3332H15.9998C16.6718 20.3332 17.2508 19.9356 17.5145 19.3628C16.809 18.9615 16.3332 18.2029 16.3332 17.3332V11.9998C16.3332 10.7112 17.3778 9.6665 18.6665 9.6665C19.167 9.6665 19.6441 9.76679 20.0788 9.94836C19.1648 6.33798 15.8943 3.6665 11.9998 3.6665C8.10538 3.6665 4.83487 6.33798 3.92091 9.94835C4.35558 9.76679 4.83266 9.6665 5.33317 9.6665C6.62183 9.6665 7.6665 10.7112 7.6665 11.9998V17.3332C7.6665 18.6218 6.62183 19.6665 5.33317 19.6665C3.30813 19.6665 1.6665 18.0249 1.6665 15.9998V11.9998ZM20.3332 13.3332C20.3332 12.4127 19.587 11.6665 18.6665 11.6665C18.4824 11.6665 18.3332 11.8157 18.3332 11.9998V17.3332C18.3332 17.5173 18.4824 17.6665 18.6665 17.6665C19.587 17.6665 20.3332 16.9203 20.3332 15.9998V13.3332Z" fill="inherit"/>
</svg>
