<svg width="24" height="24" viewBox="0 0 24 24" fill="none" xmlns="http://www.w3.org/2000/svg">
<path d="M16.2938 7.8345L15.5632 8.56513C15.708 8.71578 15.7879 8.9123 15.7879 9.12113C15.7879 9.33516 15.7046 9.53654 15.5534 9.688L15.0518 10.1896C14.9013 10.3402 14.6997 10.4234 14.4845 10.4234C14.2693 10.4234 14.0677 10.3402 13.917 10.1894L13.416 9.68854C13.1068 9.37961 13.1037 8.87899 13.4058 8.56522L12.6751 7.83459C12.4932 7.65279 12.3929 7.41065 12.3929 7.15316C12.3929 6.89568 12.4931 6.65363 12.6752 6.47165L13.7656 5.38119C13.7234 5.28009 13.7 5.16931 13.7 5.05313C13.7 4.58053 14.0845 4.1961 14.557 4.1961C15.0296 4.1961 15.4141 4.58053 15.4141 5.05313C15.4141 5.20791 15.3722 5.35282 15.3002 5.47833L16.2937 6.47174C16.4756 6.65372 16.5759 6.89577 16.5759 7.15316C16.5759 7.41056 16.4759 7.65252 16.2938 7.8345ZM10.2844 5.43065C10.3407 5.31654 10.3732 5.1887 10.3732 5.05304C10.3732 4.58044 9.98871 4.19601 9.5162 4.19601C9.04369 4.19601 8.65916 4.58044 8.65916 5.05304C8.65916 5.18861 8.69166 5.31654 8.74795 5.43056L7.70705 6.47156C7.52489 6.65354 7.4246 6.89568 7.4246 7.15316C7.4246 7.41065 7.52489 7.6527 7.70687 7.83459L8.43749 8.56522C8.13539 8.87899 8.13853 9.37969 8.44773 9.68863L8.9487 10.1895C9.09944 10.3404 9.30099 10.4235 9.5162 10.4235C9.7314 10.4235 9.93295 10.3403 10.0835 10.1897L10.5846 9.68863C10.7361 9.53708 10.8196 9.33552 10.8196 9.12131C10.8196 8.91212 10.7396 8.71551 10.5949 8.56539L11.3255 7.83477C11.5075 7.65288 11.6078 7.41074 11.6078 7.15325C11.6078 6.89577 11.5076 6.65372 11.3256 6.47183L10.2844 5.43065ZM21.0457 9.54103C21.0457 6.6267 19.6282 3.87388 17.2539 2.17713C17.0917 2.06123 16.9009 2 16.7022 2C16.4505 2 16.2139 2.09795 16.0357 2.27589C15.8394 2.47233 15.7399 2.74373 15.7629 3.02034C15.7859 3.29695 15.9287 3.54816 16.1547 3.7094C18.0196 5.04038 19.1432 7.20012 19.1601 9.48662C19.1758 11.5952 18.2462 13.5217 16.7706 14.853C16.6985 14.8203 16.6219 14.7969 16.5417 14.7848C16.3138 14.7498 16.0813 14.8072 15.8955 14.944L15.0304 15.5812C14.8434 15.7188 14.7211 15.921 14.6861 16.1512C14.685 16.1581 14.6848 16.165 14.684 16.1718C14.2136 16.3653 13.7185 16.5083 13.2056 16.5967L12.8228 16.2139C12.6031 15.9941 12.311 15.8731 12.0002 15.8731C11.6894 15.8731 11.3973 15.9942 11.1779 16.2137L10.7934 16.5982C10.2852 16.5124 9.7911 16.3735 9.31787 16.1825C9.31671 16.172 9.31626 16.1615 9.31464 16.151C9.2799 15.9214 9.15771 15.719 8.97079 15.5814L8.10513 14.9439C7.95475 14.8332 7.77681 14.7746 7.59042 14.7746C7.54661 14.7746 7.50235 14.778 7.45998 14.7844C7.37172 14.7977 7.28769 14.8243 7.20958 14.8622C7.11702 14.7787 7.02607 14.6928 6.93728 14.6041C5.58502 13.2517 4.8403 11.4536 4.8403 9.54094C4.8403 7.23289 5.96371 5.05304 7.8454 3.70976C8.07173 3.54816 8.21466 3.29669 8.23765 3.01981C8.26054 2.74328 8.16106 2.47197 7.96472 2.27562C7.78695 2.09795 7.5502 2 7.29837 2C7.09987 2 6.90936 2.06114 6.74739 2.17678C4.38018 3.86813 2.96247 6.61233 2.95511 9.5176C2.94819 12.2448 4.16884 14.7074 6.0947 16.376C6.0472 16.6854 6.16832 17.0105 6.43748 17.2089L7.30277 17.8462C7.45163 17.9559 7.62912 18.0138 7.81613 18.0138C8.01858 18.0138 8.21278 17.943 8.36621 17.8191C8.65081 17.9452 8.94295 18.057 9.24183 18.1535C9.04413 18.3685 8.93478 18.6449 8.93478 18.9391C8.93478 19.2499 9.05572 19.5419 9.27523 19.7613L11.1777 21.6638C11.3912 21.8774 11.691 22 12.0003 22C12.3096 22 12.6094 21.8774 12.8227 21.664L14.7252 19.7615C14.945 19.5419 15.0661 19.2499 15.0661 18.9391C15.0661 18.6472 14.9581 18.3725 14.7632 18.1582C15.0623 18.0627 15.3561 17.9519 15.6432 17.8255C15.7953 17.9452 15.9858 18.0138 16.1847 18.0138C16.3717 18.0138 16.5492 17.9558 16.6978 17.8463L17.5636 17.2087C17.8283 17.0136 17.9502 16.6957 17.9088 16.3908C18.076 16.2463 18.2386 16.0951 18.3965 15.9372C20.1048 14.2287 21.0457 11.9572 21.0457 9.54103Z" fill="inherit"/>
</svg>
