<svg width="24" height="24" viewBox="0 0 24 24" fill="none" xmlns="http://www.w3.org/2000/svg">
<path fill-rule="evenodd" clip-rule="evenodd" d="M2 2.4719C2 3.6162 2.56925 5.79595 3.2565 7.28304C4.775 10.5696 6.969 12.7797 9.60575 13.68C11.3282 14.2681 11.4152 14.9415 10.011 16.8246L8.986 18.1997L10.3982 20.0997C11.175 21.1448 11.8958 22 12 22C12.1042 22 12.825 21.1448 13.6018 20.0997L15.014 18.1997L13.989 16.8246C12.7208 15.1238 12.6877 14.1332 13.8905 13.8861C15.2405 13.6089 17.2598 12.3134 18.523 10.9137C20.389 8.84608 22 5.00354 22 2.62051C22 2.07089 21.8915 2 21.0508 2H20.1015L19.8258 3.63114C19.2763 6.87848 17.337 9.92304 14.9805 11.237C13.1098 12.28 10.9003 12.3127 9.2355 11.3218C6.80325 9.87342 4.7865 6.8076 4.19725 3.66127L3.886 2H2.943C2.18975 2 2 2.09494 2 2.4719Z" fill="inherit"/>
</svg>
