<svg width="24" height="24" viewBox="0 0 24 24" fill="none" xmlns="http://www.w3.org/2000/svg">
<path fill-rule="evenodd" clip-rule="evenodd" d="M2.78801 2.04312C2.4529 2.1299 2.13607 2.41108 2.04243 2.7048C2.01911 2.77803 2 3.26775 2 3.79314V4.74835L2.91101 7.7008L3.82202 10.6533L2.91101 12.7824L2 14.9114V18.1956V21.4798L2.09772 21.6519C2.15144 21.7465 2.2506 21.8601 2.31805 21.9044L2.44069 21.9848L11.7414 21.9949C21.9749 22.0059 21.2549 22.0224 21.5969 21.7688C21.6842 21.7041 21.8106 21.5504 21.8778 21.4272L22 21.2033V18.0579V14.9124L21.0912 12.8024C20.5913 11.6419 20.1843 10.666 20.1867 10.6338C20.1891 10.6015 20.598 9.26517 21.0955 7.66411L22 4.75308V3.77622C22 2.82972 21.9968 2.79296 21.8961 2.5925C21.8384 2.4777 21.7154 2.32653 21.6196 2.25275C21.2629 1.97802 22.0281 1.99795 11.9923 2.00186C6.3081 2.00409 2.87948 2.01944 2.78801 2.04312ZM21.1094 5.11451C21.0879 5.17363 20.7458 6.27697 20.3491 7.56642C19.9524 8.85587 19.5983 10.0032 19.5622 10.116L19.4965 10.3212H18.7476H17.9986L17.6608 9.19777C17.2823 7.93907 17.2326 7.81677 17.023 7.63003C16.7431 7.38058 16.6185 7.35335 15.7545 7.35237L14.9814 7.35151L14.9355 7.23312C14.8885 7.11187 14.708 6.99985 14.5596 6.99985C14.4414 6.99985 14.2559 7.14192 14.2396 7.24484L14.2258 7.33198L12 7.3421C9.99205 7.35124 9.77416 7.34616 9.77416 7.29025C9.77416 7.20159 9.5365 6.99985 9.4321 6.99985C9.27535 6.99985 9.13642 7.08249 9.06428 7.21854L8.99379 7.35151H8.27066C7.84204 7.35151 7.47813 7.37023 7.37707 7.39746C7.16834 7.45373 6.85594 7.69443 6.76304 7.87065C6.70797 7.97506 6.36347 9.06558 6.04139 10.1551L5.99231 10.3212H5.24113H4.48995L3.67904 7.69341C3.23305 6.24817 2.86827 5.05246 2.8684 5.03636C2.86853 5.02027 6.98163 5.00706 12.0086 5.00706H21.1486L21.1094 5.11451ZM9.03583 8.55438V9.09301L8.9124 9.15862C8.69594 9.27365 7.97268 9.98559 7.70085 10.3512C7.21416 11.0058 7.07127 11.5676 7.23379 12.1877C7.32925 12.5521 7.49472 12.8112 7.81498 13.098C8.14167 13.3906 8.44278 13.5382 8.88456 13.6224C10.0625 13.8469 11.1413 13.3245 11.5153 12.3486C11.6417 12.0185 11.6518 11.453 11.5367 11.1417C11.3174 10.5488 10.7316 9.81249 10.0929 9.3268L9.78193 9.09032L9.77802 8.55305L9.77416 8.01578H11.9891H14.2041V8.54617V9.07652L13.9544 9.27717C12.8753 10.1441 12.38 10.9106 12.38 11.7141C12.38 12.3095 12.6339 12.8407 13.0889 13.1973C13.7836 13.7418 14.9657 13.8248 15.7953 13.3874C16.214 13.1666 16.6148 12.677 16.7496 12.2214C16.8278 11.9571 16.8259 11.4865 16.7454 11.2086C16.589 10.6684 16.1265 10.0554 15.4056 9.43273L14.9425 9.03276V8.52425V8.01578H15.6732C16.3764 8.01578 16.4075 8.0191 16.4964 8.10432C16.5656 8.17059 16.835 9.00432 17.5659 11.4146C18.1032 13.1865 18.5373 14.6413 18.5304 14.6475C18.5236 14.6536 15.5769 14.6542 11.9823 14.6487L5.44665 14.6389L6.30541 11.806C6.77772 10.2479 7.21759 8.79761 7.28282 8.58313C7.45868 8.00507 7.43918 8.01578 8.31726 8.01578H9.03583V8.55438ZM9.26966 10.7494C9.16204 10.7895 8.90545 11.0646 8.79761 11.2555C8.69603 11.4354 8.65941 11.821 8.73233 11.9436C8.76334 11.9957 8.85364 12.0577 8.93299 12.0812C9.0522 12.1166 9.10011 12.1119 9.2086 12.0543C9.34467 11.9819 9.35809 11.959 9.40187 11.7243C9.41624 11.6472 9.50593 11.4901 9.60109 11.3754C9.79978 11.1358 9.8198 10.9967 9.67644 10.8523C9.56504 10.7401 9.40395 10.6994 9.26966 10.7494ZM14.2587 10.917C14.0423 11.1159 13.9016 11.3862 13.8697 11.6645C13.8493 11.8429 13.86 11.8833 13.9544 11.982C14.1779 12.2157 14.5948 12.068 14.5951 11.7549C14.5952 11.6739 14.656 11.5496 14.7688 11.4002C14.9725 11.1305 14.9901 10.9856 14.8358 10.8469C14.6651 10.6933 14.4773 10.7162 14.2587 10.917ZM5.76803 11.0538C5.75674 11.0914 5.50641 11.9178 5.21181 12.8903L4.67613 14.6584H3.78945C3.09772 14.6584 2.90741 14.6477 2.92395 14.6096C2.94758 14.5552 4.37702 11.2122 4.43605 11.0733C4.47253 10.9875 4.48908 10.9854 5.13103 10.9854C5.7362 10.9854 5.78697 10.9909 5.76803 11.0538ZM20.2948 12.8024C20.7185 13.791 21.0655 14.6133 21.0657 14.6299C21.066 14.6465 20.6709 14.6553 20.1878 14.6495L19.3093 14.6389L18.7614 12.832C18.46 11.8383 18.2239 11.0158 18.2367 11.0043C18.2495 10.9928 18.5445 10.9883 18.8922 10.9942L19.5244 11.005L20.2948 12.8024Z" fill="inherit"/>
</svg>
