<svg width="24" height="24" viewBox="0 0 24 24" fill="none" xmlns="http://www.w3.org/2000/svg">
<path d="M21.3885 2.40496C21.3305 2.26047 21.219 2.14392 21.0773 2.07953C20.9355 2.01515 20.7744 2.00791 20.6274 2.0593C20.4804 2.1107 20.3589 2.21678 20.2882 2.35548C20.2174 2.49417 20.2029 2.65481 20.2475 2.80396C21.1765 5.47396 19.3325 7.46796 17.9265 8.53596L17.3585 7.72196C17.1675 7.44896 16.7405 7.22196 16.4085 7.21796L13.2205 7.23196C12.8311 7.24372 12.4521 7.36051 12.1235 7.56996L2.72954 14.157C2.51103 14.3107 2.36236 14.5448 2.31606 14.808C2.26977 15.0711 2.32963 15.3419 2.48254 15.561L6.75154 21.669C7.07154 22.124 7.58254 22.069 8.03854 21.751L17.4325 15.163C17.7025 14.972 18.0145 14.56 18.1245 14.245L19.1225 11.1C19.2325 10.786 19.1655 10.307 18.9745 10.034L18.6285 9.53796C20.5165 8.09096 22.4765 5.53396 21.3885 2.40496ZM17.0175 11.763C16.8445 11.8841 16.6492 11.97 16.443 12.0156C16.2367 12.0613 16.0235 12.0659 15.8155 12.0291C15.6075 11.9923 15.4087 11.9149 15.2306 11.8013C15.0525 11.6877 14.8986 11.5401 14.7775 11.367C14.5325 11.0166 14.4364 10.5834 14.5105 10.1623C14.5845 9.74117 14.8226 9.36667 15.1725 9.12096C15.4468 8.92878 15.7743 8.82711 16.1093 8.83015C16.4442 8.8332 16.7698 8.94082 17.0405 9.13796C16.7685 9.30196 16.5815 9.39796 16.5465 9.41296C16.4226 9.47207 16.3224 9.57153 16.2623 9.69504C16.2023 9.81855 16.186 9.95879 16.2161 10.0928C16.2462 10.2268 16.3209 10.3466 16.428 10.4325C16.5351 10.5185 16.6682 10.5656 16.8055 10.566C16.8915 10.566 16.9795 10.546 17.0625 10.507C17.2565 10.415 17.4645 10.306 17.6815 10.177C17.7315 10.477 17.6956 10.7851 17.5781 11.0657C17.4607 11.3463 17.2663 11.588 17.0175 11.763Z" fill="inherit"/>
</svg>
