<svg width="24" height="24" viewBox="0 0 24 24" fill="none" xmlns="http://www.w3.org/2000/svg">
<path d="M13.2605 3.00007C8.17052 2.86007 4.00052 6.95007 4.00052 12.0001H2.21052C1.76052 12.0001 1.54052 12.5401 1.86052 12.8501L4.65052 15.6501C4.85052 15.8501 5.16052 15.8501 5.36052 15.6501L8.15052 12.8501C8.46052 12.5401 8.24052 12.0001 7.79052 12.0001H6.00052C6.00052 8.10007 9.18052 4.95007 13.1005 5.00007C16.8205 5.05007 19.9505 8.18007 20.0005 11.9001C20.0505 15.8101 16.9005 19.0001 13.0005 19.0001C11.3905 19.0001 9.90052 18.4501 8.72052 17.5201C8.32052 17.2101 7.76052 17.2401 7.40052 17.6001C6.98052 18.0201 7.01052 18.7301 7.48052 19.0901C9.00052 20.2901 10.9105 21.0001 13.0005 21.0001C18.0505 21.0001 22.1405 16.8301 22.0005 11.7401C21.8705 7.05007 17.9505 3.13007 13.2605 3.00007ZM12.7505 8.00007C12.3405 8.00007 12.0005 8.34007 12.0005 8.75007V12.4301C12.0005 12.7801 12.1905 13.1101 12.4905 13.2901L15.6105 15.1401C15.9705 15.3501 16.4305 15.2301 16.6405 14.8801C16.8505 14.5201 16.7305 14.0601 16.3805 13.8501L13.5005 12.1401V8.74007C13.5005 8.34007 13.1605 8.00007 12.7505 8.00007Z" fill="inherit"/>
</svg>
