<svg width="36" height="32" viewBox="0 0 36 32" fill="none" xmlns="http://www.w3.org/2000/svg">
<path fill-rule="evenodd" clip-rule="evenodd" d="M31.934 3.68453H26.4129L23.2257 0.166016H12.7757L9.5884 3.68453H4.06732C2.15148 3.68453 0.583984 5.26787 0.583984 7.20305V28.3142C0.583984 30.2493 2.15148 31.8327 4.06732 31.8327H31.934C33.8498 31.8327 35.4173 30.2493 35.4173 28.3142V7.20305C35.4173 5.26787 33.8498 3.68453 31.934 3.68453ZM31.934 28.3142H4.06732V7.20305H9.5884H11.1211L12.1487 6.05953L14.3083 3.68453H21.693L23.8527 6.05953L24.8802 7.20305H26.4129H31.934V28.3142ZM18.0019 24.7951C14.1528 24.7951 11.0352 21.6461 11.0352 17.7581H14.5186L10.1644 13.3599L5.81022 17.7581H9.29355C9.29355 22.6136 13.1949 26.5544 18.0019 26.5544C19.4997 26.5544 20.8756 26.1322 22.1122 25.4636L20.8234 24.1618C19.97 24.5664 19.0121 24.7951 18.0019 24.7951ZM13.8939 10.0532C15.1305 9.38471 16.5064 8.96248 18.0042 8.96248C22.8112 8.96248 26.7125 12.9032 26.7125 17.7588H30.1959L25.8417 22.1569L21.4875 17.7588H24.9709C24.9709 13.8708 21.8533 10.7217 18.0042 10.7217C16.994 10.7217 16.0361 10.9504 15.1827 11.3375L13.8939 10.0532Z" fill="#CECECE"/>
</svg>
