<svg width="32" height="32" viewBox="0 0 32 32" fill="none" xmlns="http://www.w3.org/2000/svg">
<path d="M25.3334 17.3334C24.9798 17.3334 24.6407 17.4739 24.3906 17.724C24.1406 17.974 24.0001 18.3131 24.0001 18.6668V19.1734L22.0267 17.2001C21.33 16.5088 20.3883 16.1209 19.4067 16.1209C18.4252 16.1209 17.4835 16.5088 16.7867 17.2001L15.8534 18.1334L12.5467 14.8268C11.8402 14.1542 10.9022 13.7792 9.92675 13.7792C8.95133 13.7792 8.01326 14.1542 7.30675 14.8268L5.33341 16.8001V9.33344C5.33341 8.97982 5.47389 8.64068 5.72394 8.39063C5.97399 8.14058 6.31313 8.00011 6.66675 8.00011H16.0001C16.3537 8.00011 16.6928 7.85963 16.9429 7.60958C17.1929 7.35953 17.3334 7.02039 17.3334 6.66677C17.3334 6.31315 17.1929 5.97401 16.9429 5.72396C16.6928 5.47391 16.3537 5.33344 16.0001 5.33344H6.66675C5.60588 5.33344 4.58847 5.75487 3.83832 6.50501C3.08818 7.25516 2.66675 8.27257 2.66675 9.33344V25.3334C2.66675 26.3943 3.08818 27.4117 3.83832 28.1619C4.58847 28.912 5.60588 29.3334 6.66675 29.3334H22.6667C23.7276 29.3334 24.745 28.912 25.4952 28.1619C26.2453 27.4117 26.6667 26.3943 26.6667 25.3334V18.6668C26.6667 18.3131 26.5263 17.974 26.2762 17.724C26.0262 17.4739 25.687 17.3334 25.3334 17.3334ZM6.66675 26.6668C6.31313 26.6668 5.97399 26.5263 5.72394 26.2762C5.47389 26.0262 5.33341 25.6871 5.33341 25.3334V20.5734L9.20008 16.7068C9.39596 16.5201 9.65617 16.416 9.92675 16.416C10.1973 16.416 10.4575 16.5201 10.6534 16.7068L14.8801 20.9334L20.6134 26.6668H6.66675ZM24.0001 25.3334C23.9982 25.5887 23.914 25.8365 23.7601 26.0401L17.7467 20.0001L18.6801 19.0668C18.7757 18.9692 18.8898 18.8917 19.0157 18.8388C19.1416 18.7859 19.2768 18.7586 19.4134 18.7586C19.55 18.7586 19.6852 18.7859 19.8111 18.8388C19.9371 18.8917 20.0512 18.9692 20.1467 19.0668L24.0001 22.9468V25.3334ZM30.2801 5.72011L26.2801 1.72011C26.1533 1.59872 26.0037 1.50357 25.8401 1.44011C25.5155 1.30675 25.1514 1.30675 24.8267 1.44011C24.6631 1.50357 24.5136 1.59872 24.3867 1.72011L20.3867 5.72011C20.2624 5.84442 20.1638 5.99201 20.0965 6.15444C20.0293 6.31687 19.9946 6.49096 19.9946 6.66677C19.9946 7.02184 20.1357 7.36237 20.3867 7.61344C20.6378 7.86451 20.9783 8.00556 21.3334 8.00556C21.6885 8.00556 22.029 7.86451 22.2801 7.61344L24.0001 5.88011V13.3334C24.0001 13.6871 24.1406 14.0262 24.3906 14.2762C24.6407 14.5263 24.9798 14.6668 25.3334 14.6668C25.687 14.6668 26.0262 14.5263 26.2762 14.2762C26.5263 14.0262 26.6667 13.6871 26.6667 13.3334V5.88011L28.3868 7.61344C28.5107 7.73841 28.6582 7.8376 28.8206 7.90529C28.9831 7.97298 29.1574 8.00784 29.3334 8.00784C29.5094 8.00784 29.6837 7.97298 29.8462 7.90529C30.0087 7.8376 30.1561 7.73841 30.2801 7.61344C30.4051 7.48949 30.5042 7.34202 30.5719 7.17954C30.6396 7.01706 30.6745 6.84279 30.6745 6.66677C30.6745 6.49076 30.6396 6.31648 30.5719 6.154C30.5042 5.99152 30.4051 5.84406 30.2801 5.72011V5.72011Z" fill="#D68E70"/>
</svg>
