<svg width="24" height="24" viewBox="0 0 24 24" fill="none" xmlns="http://www.w3.org/2000/svg">
<path fill-rule="evenodd" clip-rule="evenodd" d="M4.41806 3.00124C4.43465 3.00041 4.45125 3 4.46785 3H13.8187C13.8353 3 13.8519 3.00041 13.8685 3.00124C14.4217 3.02881 14.9414 3.27435 15.3141 3.68414C15.6808 4.08747 15.8757 4.61761 15.8579 5.16179V8.57143C15.8579 9.12371 15.4102 9.57143 14.8579 9.57143C14.3057 9.57143 13.8579 9.12371 13.8579 8.57143V5.14286C13.8579 5.12782 13.8583 5.11279 13.859 5.09778C13.8601 5.07272 13.8513 5.04824 13.8344 5.02968C13.8201 5.01394 13.801 5.00355 13.7802 5H4.5064C4.48581 5.00353 4.46687 5.01384 4.45268 5.02946C4.43594 5.04788 4.42718 5.07218 4.42832 5.09705C4.42902 5.11231 4.42937 5.12758 4.42937 5.14286V18.8571C4.42937 18.8722 4.42903 18.8872 4.42835 18.9023C4.42722 18.9273 4.43605 18.9518 4.45291 18.9703C4.46718 18.986 4.48621 18.9964 4.5069 19H13.7802C13.801 18.9964 13.8201 18.9861 13.8344 18.9703C13.8513 18.9518 13.8601 18.9273 13.859 18.9022C13.8583 18.8872 13.8579 18.8722 13.8579 18.8571V15.4286C13.8579 14.8763 14.3057 14.4286 14.8579 14.4286C15.4102 14.4286 15.8579 14.8763 15.8579 15.4286V18.8382C15.8757 19.3824 15.6808 19.9125 15.3141 20.3159C14.9414 20.7256 14.4217 20.9712 13.8685 20.9988C13.8519 20.9996 13.8353 21 13.8187 21H4.46785C4.45102 21 4.43418 20.9996 4.41737 20.9987C3.86443 20.9708 3.34504 20.7251 2.97272 20.3153C2.60627 19.912 2.41161 19.3821 2.42937 18.8382V5.16209C2.41134 4.61801 2.60593 4.08786 2.97249 3.68446C3.34502 3.27449 3.86481 3.02882 4.41806 3.00124ZM12.1364 8.43882C12.527 8.82934 12.527 9.46251 12.1364 9.85303L10.9864 11.0031H20.5722C21.1245 11.0031 21.5722 11.4508 21.5722 12.0031C21.5722 12.5554 21.1245 13.0031 20.5722 13.0031H10.9864L12.1364 14.1531C12.527 14.5436 12.527 15.1768 12.1364 15.5673C11.7459 15.9578 11.1128 15.9578 10.7222 15.5673L7.86509 12.7102C7.47457 12.3197 7.47457 11.6865 7.86509 11.296L10.7222 8.43882C11.1128 8.0483 11.7459 8.0483 12.1364 8.43882Z" fill="inherit"/>
</svg>
