<svg width="408" height="243" viewBox="0 0 408 243" fill="none" xmlns="http://www.w3.org/2000/svg">
<path d="M42.0064 169.62C42.0064 169.807 41.9864 170.117 41.9464 170.55C41.9464 170.99 41.8264 171.46 41.7364 171.99C41.6464 172.52 41.5164 173.07 41.3564 173.64C41.219 174.174 41.0384 174.695 40.8164 175.2C40.6355 175.63 40.3818 176.026 40.0664 176.37C39.9509 176.509 39.8075 176.621 39.6455 176.7C39.4835 176.78 39.3066 176.824 39.1264 176.83H25.5264L16.8564 220.32C16.7659 220.603 16.6081 220.861 16.3964 221.07C16.106 221.322 15.7651 221.51 15.3964 221.62C14.8195 221.777 14.2309 221.887 13.6364 221.95C12.7426 222.039 11.8446 222.079 10.9464 222.07C10.0658 222.096 9.18437 222.073 8.30637 222C7.7596 221.947 7.21996 221.836 6.69637 221.67C6.39343 221.573 6.13026 221.38 5.94637 221.12C5.82191 220.891 5.7863 220.624 5.84637 220.37L14.5164 176.88H1.08637C0.914736 176.899 0.74147 176.865 0.589628 176.783C0.437786 176.7 0.314567 176.574 0.236369 176.42C0.0548933 176.012 -0.0240652 175.566 0.00636893 175.12C0.00636893 174.9 0.00636893 174.57 0.0663689 174.12C0.126369 173.67 0.176369 173.2 0.276369 172.66C0.376369 172.12 0.496369 171.56 0.656369 170.99C0.795718 170.454 0.983146 169.932 1.21637 169.43C1.41629 169.013 1.68315 168.631 2.00637 168.3C2.12068 168.167 2.26176 168.061 2.42033 167.986C2.5789 167.912 2.75136 167.873 2.92637 167.87H40.9264C41.0853 167.866 41.2423 167.905 41.38 167.985C41.5177 168.064 41.6306 168.18 41.7064 168.32C41.9074 168.723 42.0004 169.171 41.9764 169.62" fill="#75223B"/>
<path d="M65.8856 220.45C65.8072 220.761 65.6426 221.043 65.4109 221.264C65.1791 221.485 64.8895 221.636 64.5756 221.7C63.3696 221.999 62.127 222.124 60.8856 222.07C60.0256 222.07 59.3256 222.07 58.7756 221.99C58.33 221.951 57.8905 221.86 57.4656 221.72C57.1935 221.642 56.9613 221.463 56.8156 221.22C56.7174 220.976 56.6965 220.707 56.7556 220.45L57.9256 214.45C57.4029 215.484 56.7288 216.435 55.9256 217.27C54.9566 218.312 53.8615 219.229 52.6656 220C51.3653 220.827 49.9724 221.498 48.5156 222C47.0119 222.528 45.4292 222.795 43.8356 222.79C41.9191 222.857 40.015 222.459 38.2856 221.63C36.8587 220.892 35.6386 219.809 34.7356 218.48C33.8224 217.105 33.1808 215.567 32.8456 213.95C32.4593 212.2 32.2681 210.412 32.2756 208.62C32.2914 206.697 32.4586 204.777 32.7756 202.88C33.1196 200.777 33.6381 198.707 34.3256 196.69C35.0197 194.623 35.9175 192.63 37.0056 190.74C38.0543 188.871 39.3679 187.163 40.9056 185.67C42.4187 184.196 44.1831 183.004 46.1156 182.15C48.2125 181.24 50.4801 180.79 52.7656 180.83C54.8974 180.788 57.0055 181.283 58.8956 182.27C60.7472 183.298 62.3434 184.73 63.5656 186.46L64.2256 183.17C64.3069 182.859 64.4737 182.577 64.707 182.356C64.9403 182.136 65.2308 181.984 65.5456 181.92C66.7509 181.617 67.9937 181.489 69.2356 181.54C69.9302 181.536 70.6245 181.57 71.3156 181.64C71.7664 181.684 72.2099 181.785 72.6356 181.94C72.9035 182.022 73.1316 182.2 73.2756 182.44C73.3877 182.666 73.4194 182.924 73.3656 183.17L65.8856 220.45ZM60.7156 194.34C59.8979 192.975 58.7964 191.802 57.4856 190.9C56.2567 190.126 54.8276 189.73 53.3756 189.76C52.2514 189.751 51.1446 190.038 50.1656 190.59C49.1744 191.167 48.2995 191.923 47.5856 192.82C46.7909 193.812 46.1193 194.897 45.5856 196.05C45.0105 197.283 44.5356 198.561 44.1656 199.87C43.7919 201.182 43.5112 202.519 43.3256 203.87C43.1562 205.11 43.0694 206.359 43.0656 207.61C43.0578 208.404 43.118 209.197 43.2456 209.98C43.3581 210.682 43.5916 211.358 43.9356 211.98C44.2677 212.598 44.7703 213.108 45.3838 213.448C45.9972 213.788 46.6955 213.945 47.3956 213.9C48.722 213.87 50.0164 213.487 51.1456 212.79C52.5021 211.999 53.7157 210.984 54.7356 209.79C55.8986 208.447 56.8865 206.962 57.6756 205.37C58.5353 203.662 59.1609 201.845 59.5356 199.97L60.7156 194.34Z" fill="#75223B"/>
<path d="M86.9062 220.4C86.8505 220.678 86.7109 220.933 86.5062 221.13C86.24 221.374 85.9221 221.556 85.5762 221.66C85.0308 221.817 84.4715 221.921 83.9062 221.97C83.2062 222.04 82.3562 222.07 81.3562 222.07C80.5017 222.08 79.6472 222.047 78.7962 221.97C78.2793 221.925 77.7693 221.821 77.2761 221.66C76.9807 221.569 76.7238 221.383 76.5462 221.13C76.4177 220.91 76.3784 220.648 76.4362 220.4L87.4362 165.57C87.4889 165.291 87.6169 165.032 87.8062 164.82C88.0861 164.551 88.4304 164.358 88.8062 164.26C89.3571 164.088 89.9228 163.967 90.4962 163.9C91.3499 163.811 92.2079 163.771 93.0661 163.78C93.9078 163.77 94.7492 163.81 95.5862 163.9C96.1056 163.958 96.6161 164.078 97.1061 164.26C97.4014 164.357 97.6528 164.556 97.8161 164.82C97.9275 165.053 97.9591 165.317 97.9062 165.57L86.9062 220.4Z" fill="#75223B"/>
<path d="M107.877 220.4C107.829 220.679 107.693 220.935 107.487 221.13C107.201 221.384 106.858 221.566 106.487 221.66C105.935 221.817 105.369 221.921 104.797 221.97C104.097 222.04 103.257 222.07 102.257 222.07C101.413 222.08 100.568 222.046 99.7272 221.97C99.2041 221.923 98.6878 221.819 98.1872 221.66C97.8872 221.579 97.6275 221.39 97.4572 221.13C97.3389 220.906 97.3103 220.645 97.3772 220.4L104.757 183.29C104.814 183.014 104.949 182.76 105.147 182.56C105.438 182.31 105.779 182.126 106.147 182.02C106.69 181.844 107.25 181.727 107.817 181.67C108.667 181.573 109.522 181.529 110.377 181.54C111.222 181.528 112.068 181.571 112.907 181.67C113.433 181.722 113.951 181.839 114.447 182.02C114.744 182.113 115.002 182.303 115.177 182.56C115.29 182.786 115.318 183.045 115.257 183.29L107.877 220.4ZM118.637 170.7C118.484 171.6 118.219 172.476 117.847 173.31C117.544 173.973 117.084 174.553 116.507 175C115.916 175.448 115.233 175.759 114.507 175.91C113.521 176.113 112.514 176.203 111.507 176.18C110.546 176.206 109.586 176.115 108.647 175.91C108.011 175.785 107.428 175.467 106.977 175C106.583 174.515 106.358 173.915 106.337 173.29C106.295 172.413 106.38 171.534 106.587 170.68C106.741 169.803 107.007 168.95 107.377 168.14C107.687 167.477 108.141 166.893 108.707 166.43C109.291 165.952 109.974 165.61 110.707 165.43C111.692 165.215 112.699 165.118 113.707 165.14C114.669 165.114 115.63 165.212 116.567 165.43C117.215 165.579 117.8 165.929 118.237 166.43C118.626 166.916 118.844 167.517 118.857 168.14C118.887 168.993 118.81 169.846 118.627 170.68" fill="#75223B"/>
<path d="M149.006 184.84C148.99 185.336 148.94 185.831 148.856 186.32C148.76 186.996 148.616 187.664 148.426 188.32C148.252 188.917 148.021 189.497 147.736 190.05C147.466 190.53 147.176 190.78 146.836 190.78C146.387 190.75 145.952 190.613 145.566 190.38C145.076 190.12 144.486 189.82 143.796 189.5C143.006 189.154 142.19 188.87 141.356 188.65C140.287 188.385 139.188 188.261 138.086 188.28C137.202 188.264 136.321 188.389 135.476 188.65C134.783 188.854 134.137 189.194 133.576 189.65C133.088 190.068 132.696 190.587 132.426 191.17C132.165 191.762 132.032 192.403 132.036 193.05C132.033 193.469 132.127 193.883 132.311 194.26C132.495 194.636 132.764 194.965 133.096 195.22C133.914 195.869 134.803 196.422 135.746 196.87C136.806 197.38 137.936 197.87 139.166 198.47C140.386 199.027 141.535 199.728 142.586 200.56C143.643 201.387 144.535 202.404 145.216 203.56C145.94 204.946 146.285 206.498 146.216 208.06C146.234 210.077 145.822 212.075 145.006 213.92C144.2 215.717 142.997 217.307 141.486 218.57C139.82 219.945 137.906 220.987 135.846 221.64C133.428 222.404 130.903 222.776 128.366 222.74C127.087 222.743 125.81 222.646 124.546 222.45C123.45 222.277 122.365 222.04 121.296 221.74C120.45 221.493 119.633 221.157 118.856 220.74C118.32 220.465 117.817 220.13 117.356 219.74C117.15 219.538 116.987 219.297 116.876 219.03C116.771 218.708 116.724 218.369 116.736 218.03C116.739 217.696 116.759 217.362 116.796 217.03C116.843 216.593 116.913 216.159 117.006 215.73C117.106 215.26 117.216 214.79 117.336 214.31C117.453 213.87 117.6 213.439 117.776 213.02C117.915 212.685 118.097 212.369 118.316 212.08C118.389 211.979 118.483 211.895 118.592 211.834C118.701 211.774 118.822 211.738 118.946 211.73C119.417 211.762 119.867 211.936 120.236 212.23C120.824 212.633 121.435 213 122.066 213.33C122.956 213.791 123.887 214.17 124.846 214.46C126.182 214.841 127.568 215.016 128.956 214.98C129.971 215.001 130.983 214.866 131.956 214.58C132.724 214.36 133.438 213.985 134.056 213.48C134.59 213.042 135.012 212.483 135.286 211.85C135.562 211.22 135.699 210.538 135.686 209.85C135.706 209.406 135.626 208.962 135.453 208.552C135.28 208.143 135.018 207.776 134.686 207.48C133.906 206.804 133.042 206.229 132.116 205.77C131.116 205.24 129.976 204.7 128.766 204.14C127.574 203.602 126.447 202.931 125.406 202.14C124.363 201.317 123.49 200.298 122.836 199.14C122.116 197.749 121.772 196.195 121.836 194.63C121.821 192.738 122.206 190.863 122.966 189.13C123.722 187.425 124.845 185.909 126.256 184.69C127.796 183.355 129.584 182.336 131.516 181.69C133.774 180.946 136.14 180.585 138.516 180.62C139.654 180.62 140.79 180.696 141.916 180.85C142.93 180.981 143.932 181.185 144.916 181.46C145.7 181.677 146.466 181.955 147.206 182.29C147.727 182.505 148.203 182.817 148.606 183.21C148.778 183.401 148.908 183.627 148.987 183.871C149.066 184.116 149.093 184.374 149.066 184.63" fill="#75223B"/>
<path d="M210.377 220.4C210.321 220.679 210.182 220.933 209.977 221.13C209.692 221.386 209.348 221.568 208.977 221.66C208.424 221.814 207.858 221.918 207.287 221.97C206.607 222.04 205.757 222.07 204.727 222.07C203.892 222.079 203.058 222.045 202.227 221.97C201.7 221.926 201.18 221.822 200.677 221.66C200.384 221.57 200.13 221.383 199.957 221.13C199.893 221.021 199.853 220.899 199.841 220.773C199.829 220.647 199.845 220.519 199.887 220.4L204.347 198.1C204.467 197.46 204.557 196.82 204.647 196.2C204.727 195.57 204.767 194.935 204.767 194.3C204.817 193.197 204.564 192.101 204.037 191.13C203.754 190.712 203.362 190.379 202.904 190.165C202.446 189.952 201.939 189.868 201.437 189.92C200.216 189.96 199.03 190.334 198.007 191C196.714 191.799 195.551 192.79 194.557 193.94C193.41 195.258 192.429 196.712 191.637 198.27C190.791 199.937 190.182 201.714 189.827 203.55L186.447 220.39C186.399 220.669 186.262 220.925 186.057 221.12C185.77 221.373 185.427 221.555 185.057 221.65C184.504 221.803 183.938 221.907 183.367 221.96C182.687 222.03 181.827 222.06 180.807 222.06C179.979 222.07 179.151 222.036 178.327 221.96C177.807 221.916 177.293 221.812 176.797 221.65C176.503 221.557 176.247 221.371 176.067 221.12C175.942 220.898 175.906 220.637 175.967 220.39L180.387 198.09C180.556 197.434 180.673 196.765 180.737 196.09C180.808 195.426 180.844 194.758 180.847 194.09C180.886 193.039 180.626 191.999 180.097 191.09C179.809 190.68 179.418 190.354 178.963 190.145C178.508 189.936 178.005 189.852 177.507 189.9C176.275 189.939 175.079 190.316 174.047 190.99C172.757 191.789 171.597 192.781 170.607 193.93C169.456 195.246 168.475 196.7 167.687 198.26C166.837 199.925 166.227 201.703 165.877 203.54L162.507 220.4C162.451 220.679 162.312 220.933 162.107 221.13C161.822 221.386 161.479 221.568 161.107 221.66C160.558 221.816 159.995 221.92 159.427 221.97C158.727 222.04 157.877 222.07 156.877 222.07C156.036 222.08 155.195 222.046 154.357 221.97C153.831 221.923 153.311 221.819 152.807 221.66C152.511 221.576 152.255 221.388 152.087 221.13C151.965 220.907 151.933 220.646 151.997 220.4L159.467 183.17C159.515 182.899 159.636 182.647 159.817 182.44C160.045 182.199 160.336 182.026 160.657 181.94C161.132 181.788 161.621 181.688 162.117 181.64C162.828 181.571 163.542 181.538 164.257 181.54C164.962 181.535 165.666 181.569 166.367 181.64C166.802 181.684 167.229 181.785 167.637 181.94C167.897 182.021 168.116 182.2 168.247 182.44C168.339 182.672 168.36 182.926 168.307 183.17L167.097 189.3C167.756 188.214 168.538 187.207 169.427 186.3C170.423 185.264 171.538 184.348 172.747 183.57C173.996 182.746 175.339 182.075 176.747 181.57C178.203 181.059 179.734 180.799 181.277 180.8C182.701 180.772 184.119 180.991 185.467 181.45C186.529 181.803 187.5 182.388 188.308 183.163C189.116 183.938 189.74 184.883 190.137 185.93C190.549 187.002 190.808 188.126 190.907 189.27C191.613 188.187 192.431 187.182 193.347 186.27C194.357 185.253 195.473 184.348 196.677 183.57C197.928 182.749 199.27 182.078 200.677 181.57C203.708 180.515 207.006 180.515 210.037 181.57C211.267 182.055 212.361 182.831 213.227 183.83C214.05 184.815 214.647 185.969 214.977 187.21C215.347 188.576 215.529 189.985 215.517 191.4C215.518 192.382 215.465 193.364 215.357 194.34C215.237 195.34 215.077 196.34 214.857 197.34L210.377 220.4Z" fill="#75223B"/>
<path d="M255.206 220.45C255.124 220.761 254.958 221.043 254.724 221.264C254.491 221.485 254.2 221.636 253.886 221.7C252.68 221.999 251.437 222.124 250.196 222.07C249.336 222.07 248.636 222.07 248.086 221.99C247.64 221.949 247.201 221.859 246.776 221.72C246.505 221.644 246.275 221.464 246.136 221.22C246.034 220.977 246.01 220.708 246.066 220.45L247.236 214.45C246.717 215.486 246.042 216.437 245.236 217.27C244.276 218.311 243.191 219.228 242.006 220C240.704 220.825 239.312 221.496 237.856 222C236.348 222.527 234.762 222.794 233.166 222.79C231.249 222.857 229.345 222.459 227.616 221.63C226.192 220.891 224.975 219.809 224.076 218.48C223.16 217.105 222.515 215.567 222.176 213.95C221.793 212.2 221.605 210.412 221.616 208.62C221.626 206.696 221.794 204.777 222.116 202.88C222.452 200.777 222.967 198.706 223.656 196.69C224.347 194.627 225.242 192.637 226.326 190.75C227.374 188.881 228.688 187.173 230.226 185.68C231.739 184.206 233.503 183.014 235.436 182.16C237.533 181.25 239.8 180.8 242.086 180.84C244.217 180.798 246.326 181.293 248.216 182.28C250.069 183.305 251.666 184.738 252.886 186.47L253.556 183.18C253.634 182.869 253.799 182.587 254.03 182.366C254.262 182.145 254.552 181.994 254.866 181.93C256.071 181.628 257.314 181.5 258.556 181.55C259.254 181.546 259.951 181.58 260.646 181.65C261.093 181.695 261.533 181.796 261.956 181.95C262.225 182.034 262.455 182.212 262.606 182.45C262.714 182.677 262.743 182.935 262.686 183.18L255.206 220.45ZM250.006 194.34C249.188 192.975 248.086 191.802 246.776 190.9C245.55 190.127 244.124 189.731 242.676 189.76C241.551 189.75 240.444 190.036 239.466 190.59C238.47 191.164 237.591 191.92 236.876 192.82C236.081 193.812 235.409 194.897 234.876 196.05C234.305 197.285 233.83 198.562 233.456 199.87C233.085 201.182 232.808 202.519 232.626 203.87C232.454 205.106 232.363 206.352 232.356 207.6C232.352 208.397 232.413 209.193 232.536 209.98C232.648 210.682 232.882 211.358 233.226 211.98C233.561 212.596 234.064 213.103 234.677 213.443C235.289 213.783 235.986 213.942 236.686 213.9C238.015 213.871 239.313 213.488 240.446 212.79C241.797 211.995 243.007 210.981 244.026 209.79C245.189 208.447 246.177 206.962 246.966 205.37C247.825 203.662 248.451 201.845 248.826 199.97L250.006 194.34ZM263.276 165.65C263.276 165.82 263.276 166.2 263.186 166.8C263.111 167.513 262.977 168.219 262.786 168.91C262.555 169.793 262.236 170.65 261.836 171.47C261.395 172.384 260.811 173.221 260.106 173.95C259.333 174.732 258.42 175.363 257.416 175.81C256.182 176.326 254.853 176.574 253.516 176.54C252.551 176.557 251.589 176.443 250.656 176.2C249.881 175.997 249.133 175.705 248.426 175.33C247.793 174.995 247.188 174.61 246.616 174.18L245.066 173.05C244.603 172.721 244.115 172.431 243.606 172.18C243.119 171.947 242.585 171.827 242.046 171.83C241.645 171.805 241.245 171.884 240.884 172.06C240.523 172.235 240.214 172.5 239.986 172.83C239.482 173.598 239.173 174.476 239.086 175.39C239.043 175.605 238.965 175.811 238.856 176C238.727 176.173 238.544 176.296 238.336 176.35C238.01 176.445 237.674 176.502 237.336 176.52C236.906 176.52 236.336 176.52 235.686 176.52C235.185 176.527 234.684 176.504 234.186 176.45C233.877 176.432 233.573 176.365 233.286 176.25C233.105 176.182 232.957 176.045 232.876 175.87C232.799 175.694 232.761 175.503 232.766 175.31C232.766 175.14 232.766 174.76 232.846 174.16C232.925 173.451 233.059 172.749 233.246 172.06C233.479 171.183 233.793 170.329 234.186 169.51C234.614 168.6 235.192 167.769 235.896 167.05C236.675 166.263 237.594 165.629 238.606 165.18C239.843 164.649 241.18 164.393 242.526 164.43C243.466 164.419 244.404 164.53 245.316 164.76C246.098 164.958 246.854 165.25 247.566 165.63C248.197 165.973 248.805 166.357 249.386 166.78L250.946 167.93C251.408 168.269 251.904 168.561 252.426 168.8C252.904 169.026 253.427 169.142 253.956 169.14C254.335 169.149 254.712 169.073 255.058 168.917C255.404 168.761 255.711 168.53 255.956 168.24C256.541 167.474 256.889 166.552 256.956 165.59C256.963 165.378 257.037 165.173 257.169 165.006C257.3 164.838 257.481 164.717 257.686 164.66C258.524 164.463 259.386 164.386 260.246 164.43C261.082 164.371 261.922 164.462 262.726 164.7C262.901 164.783 263.047 164.915 263.149 165.081C263.25 165.246 263.301 165.437 263.296 165.63" fill="#75223B"/>
<path d="M272.356 228.78C271.991 230.658 271.445 232.497 270.726 234.27C270.08 235.866 269.163 237.337 268.016 238.62C266.903 239.854 265.539 240.836 264.016 241.5C262.236 242.221 260.325 242.561 258.406 242.5C257.202 242.511 256 242.407 254.816 242.19C253.875 242.026 252.958 241.748 252.086 241.36C251.548 241.15 251.072 240.806 250.706 240.36C250.524 240.058 250.431 239.712 250.436 239.36C250.441 239.092 250.461 238.825 250.496 238.56C250.546 238.23 250.596 237.89 250.666 237.56C250.743 237.182 250.839 236.808 250.956 236.44C251.071 236.083 251.205 235.733 251.356 235.39C251.478 235.116 251.632 234.857 251.816 234.62C251.876 234.53 251.956 234.455 252.049 234.402C252.143 234.348 252.248 234.316 252.356 234.31C252.687 234.316 253.008 234.424 253.276 234.62C253.576 234.83 253.946 235.05 254.376 235.29C254.878 235.56 255.403 235.784 255.946 235.96C256.674 236.185 257.434 236.29 258.196 236.27C259.117 236.292 260.035 236.15 260.906 235.85C261.669 235.57 262.34 235.086 262.846 234.45C263.444 233.692 263.914 232.841 264.236 231.93C264.687 230.683 265.038 229.402 265.286 228.1L281.146 159.84C281.184 159.634 281.285 159.445 281.436 159.3C281.641 159.112 281.882 158.969 282.146 158.88C282.519 158.757 282.905 158.673 283.296 158.63C283.871 158.573 284.448 158.546 285.026 158.55C285.567 158.547 286.108 158.573 286.646 158.63C287.003 158.671 287.355 158.748 287.696 158.86C287.913 158.934 288.102 159.074 288.236 159.26C288.347 159.432 288.389 159.638 288.356 159.84L272.356 228.78Z" fill="#D8896D"/>
<path d="M321.376 195.68C321.368 197.79 321.174 199.894 320.796 201.97C320.41 204.091 319.814 206.168 319.016 208.17C318.232 210.147 317.225 212.03 316.016 213.78C314.81 215.512 313.354 217.055 311.696 218.36C309.999 219.692 308.098 220.742 306.066 221.47C303.817 222.257 301.449 222.646 299.066 222.62C296.741 222.653 294.425 222.315 292.206 221.62C290.444 221.07 288.837 220.11 287.516 218.82C286.263 217.561 285.333 216.017 284.806 214.32C284.192 212.363 283.894 210.321 283.926 208.27C283.931 206.161 284.122 204.056 284.496 201.98C285.224 197.754 286.858 193.735 289.286 190.2C290.476 188.453 291.926 186.898 293.586 185.59C295.28 184.257 297.177 183.207 299.206 182.48C301.455 181.694 303.824 181.305 306.206 181.33C308.532 181.287 310.849 181.625 313.066 182.33C314.827 182.906 316.437 183.87 317.776 185.15C319.037 186.407 319.974 187.951 320.506 189.65C321.119 191.59 321.416 193.616 321.386 195.65L321.376 195.68ZM314.126 196.06C314.143 194.797 313.998 193.537 313.696 192.31C313.438 191.269 312.934 190.305 312.226 189.5C311.501 188.695 310.587 188.083 309.566 187.72C308.28 187.277 306.926 187.067 305.566 187.1C304.006 187.079 302.46 187.386 301.026 188C299.676 188.584 298.44 189.404 297.376 190.42C296.279 191.466 295.34 192.665 294.586 193.98C293.769 195.359 293.098 196.821 292.586 198.34C292.066 199.887 291.681 201.476 291.436 203.09C291.188 204.671 291.061 206.269 291.056 207.87C291.044 209.135 291.198 210.396 291.516 211.62C291.79 212.663 292.296 213.63 292.996 214.45C293.719 215.257 294.629 215.875 295.646 216.25C298.433 217.161 301.452 217.065 304.176 215.98C305.52 215.386 306.749 214.56 307.806 213.54C308.899 212.479 309.838 211.271 310.596 209.95C311.415 208.565 312.086 207.096 312.596 205.57C313.107 204.02 313.492 202.432 313.746 200.82C313.992 199.245 314.115 197.654 314.116 196.06" fill="#D8896D"/>
<path d="M331.067 220.78C331.014 220.988 330.911 221.18 330.767 221.34C330.595 221.521 330.383 221.658 330.147 221.74C329.779 221.872 329.396 221.96 329.007 222C328.445 222.057 327.881 222.084 327.317 222.08C326.756 222.085 326.195 222.058 325.637 222C325.294 221.963 324.957 221.878 324.637 221.75C324.443 221.675 324.284 221.533 324.187 221.35C324.12 221.169 324.12 220.971 324.187 220.79L331.647 183.26C331.677 183.06 331.764 182.873 331.897 182.72C332.068 182.529 332.284 182.384 332.527 182.3C332.882 182.172 333.251 182.088 333.627 182.05C334.202 181.993 334.779 181.966 335.357 181.97C335.907 181.949 336.458 181.959 337.007 182C337.35 182.036 337.687 182.12 338.007 182.25C338.208 182.326 338.373 182.476 338.467 182.67C338.536 182.841 338.557 183.028 338.527 183.21L331.067 220.78ZM341.867 170.62C341.761 171.308 341.569 171.98 341.297 172.62C341.09 173.113 340.767 173.548 340.357 173.89C339.932 174.227 339.436 174.463 338.907 174.58C338.207 174.731 337.492 174.802 336.777 174.79C336.104 174.805 335.432 174.735 334.777 174.58C334.321 174.485 333.91 174.243 333.607 173.89C333.339 173.52 333.192 173.076 333.187 172.62C333.166 171.949 333.223 171.278 333.357 170.62C333.482 169.95 333.69 169.298 333.977 168.68C334.207 168.193 334.526 167.752 334.917 167.38C335.324 167.02 335.822 166.778 336.357 166.68C337.058 166.541 337.772 166.477 338.487 166.49C339.159 166.472 339.83 166.536 340.487 166.68C340.947 166.769 341.361 167.017 341.657 167.38C341.929 167.76 342.083 168.212 342.097 168.68C342.102 169.333 342.032 169.984 341.887 170.62" fill="#D8896D"/>
<path d="M370.237 220.78C370.185 221.011 370.073 221.225 369.914 221.4C369.754 221.575 369.552 221.706 369.327 221.78C368.512 222.013 367.664 222.111 366.817 222.07C366.359 222.074 365.901 222.047 365.447 221.99C365.145 221.948 364.85 221.871 364.567 221.76C364.38 221.686 364.22 221.557 364.107 221.39C364.026 221.195 364.026 220.975 364.107 220.78L365.487 213.69C364.992 214.77 364.316 215.758 363.487 216.61C362.491 217.717 361.362 218.698 360.127 219.53C358.787 220.441 357.339 221.184 355.817 221.74C354.268 222.317 352.63 222.615 350.977 222.62C349.069 222.684 347.175 222.282 345.457 221.45C344.057 220.722 342.859 219.661 341.967 218.36C341.094 217.049 340.492 215.577 340.197 214.03C339.873 212.383 339.712 210.708 339.717 209.03C339.736 207.258 339.883 205.49 340.157 203.74C340.468 201.689 340.943 199.665 341.577 197.69C342.235 195.615 343.085 193.606 344.117 191.69C345.135 189.781 346.406 188.018 347.897 186.45C349.364 184.912 351.099 183.655 353.017 182.74C355.097 181.78 357.366 181.301 359.657 181.34C361.868 181.282 364.056 181.798 366.007 182.84C367.838 183.899 369.447 185.301 370.747 186.97L371.537 183.18C371.6 182.939 371.726 182.72 371.901 182.544C372.077 182.369 372.296 182.243 372.537 182.18C373.345 181.989 374.179 181.928 375.007 182C375.474 181.996 375.942 182.016 376.407 182.06C376.715 182.085 377.016 182.162 377.297 182.29C377.487 182.369 377.638 182.52 377.717 182.71C377.758 182.888 377.758 183.072 377.717 183.25L370.237 220.78ZM368.947 193.05C367.845 191.338 366.406 189.868 364.717 188.73C363.185 187.774 361.412 187.278 359.607 187.3C358.182 187.277 356.779 187.644 355.547 188.36C354.314 189.092 353.225 190.044 352.337 191.17C351.367 192.397 350.554 193.741 349.917 195.17C349.235 196.655 348.676 198.193 348.247 199.77C347.814 201.307 347.48 202.87 347.247 204.45C347.05 205.815 346.947 207.191 346.937 208.57C346.933 209.541 347.01 210.511 347.167 211.47C347.305 212.39 347.599 213.279 348.037 214.1C348.456 214.879 349.065 215.539 349.807 216.02C350.691 216.534 351.705 216.784 352.727 216.74C354.347 216.718 355.934 216.281 357.337 215.47C358.968 214.553 360.429 213.362 361.657 211.95C363.058 210.341 364.248 208.56 365.197 206.65C366.26 204.527 367.03 202.27 367.487 199.94L368.947 193.05Z" fill="#D8896D"/>
<path d="M407.597 185.29C407.587 185.663 407.547 186.034 407.477 186.4C407.391 186.862 407.271 187.316 407.117 187.76C406.99 188.156 406.808 188.533 406.577 188.88C406.51 189.009 406.412 189.118 406.291 189.199C406.17 189.279 406.031 189.328 405.887 189.34C405.465 189.313 405.058 189.175 404.707 188.94C404.247 188.68 403.707 188.38 403.017 188.05C402.245 187.674 401.442 187.366 400.617 187.13C399.536 186.83 398.418 186.689 397.297 186.71C396.191 186.69 395.091 186.866 394.047 187.23C393.167 187.54 392.358 188.023 391.667 188.65C391.054 189.212 390.561 189.893 390.217 190.65C389.882 191.402 389.712 192.217 389.717 193.04C389.701 193.554 389.79 194.066 389.979 194.544C390.169 195.022 390.454 195.456 390.817 195.82C391.638 196.618 392.571 197.291 393.587 197.82C394.707 198.4 395.907 198.98 397.197 199.55C398.468 200.106 399.672 200.804 400.787 201.63C401.876 202.457 402.807 203.473 403.537 204.63C404.313 205.948 404.695 207.461 404.637 208.99C404.653 210.864 404.265 212.72 403.497 214.43C402.733 216.104 401.605 217.586 400.197 218.77C398.663 220.035 396.901 220.996 395.007 221.6C392.809 222.299 390.513 222.637 388.207 222.6C386.97 222.605 385.736 222.505 384.517 222.3C383.459 222.132 382.415 221.881 381.397 221.55C380.565 221.3 379.76 220.965 378.997 220.55C378.444 220.257 377.927 219.902 377.457 219.49C377.247 219.299 377.083 219.063 376.977 218.8C376.871 218.529 376.82 218.24 376.827 217.95C376.827 217.72 376.827 217.46 376.827 217.15C376.856 216.812 376.912 216.478 376.997 216.15C377.077 215.82 377.167 215.5 377.267 215.2C377.355 214.909 377.473 214.628 377.617 214.36C377.735 214.143 377.876 213.938 378.037 213.75C378.1 213.68 378.177 213.624 378.263 213.586C378.349 213.548 378.443 213.529 378.537 213.53C378.992 213.573 379.419 213.77 379.747 214.09C380.335 214.541 380.957 214.945 381.607 215.3C382.516 215.792 383.471 216.198 384.457 216.51C385.84 216.915 387.276 217.104 388.717 217.07C390.052 217.097 391.382 216.908 392.657 216.51C393.653 216.185 394.579 215.676 395.387 215.01C396.08 214.412 396.628 213.662 396.987 212.82C397.334 211.987 397.511 211.093 397.507 210.19C397.528 209.665 397.443 209.142 397.257 208.65C397.072 208.159 396.789 207.71 396.427 207.33C395.619 206.534 394.7 205.86 393.697 205.33C392.597 204.743 391.407 204.153 390.127 203.56C388.875 202.993 387.682 202.303 386.567 201.5C385.473 200.71 384.54 199.719 383.817 198.58C383.03 197.251 382.644 195.723 382.707 194.18C382.69 192.417 383.063 190.673 383.797 189.07C384.514 187.505 385.558 186.11 386.857 184.98C388.253 183.787 389.866 182.873 391.607 182.29C393.588 181.62 395.666 181.283 397.757 181.29C398.785 181.291 399.812 181.374 400.827 181.54C401.749 181.694 402.66 181.905 403.557 182.17C404.301 182.387 405.027 182.665 405.727 183C406.229 183.238 406.694 183.548 407.107 183.92C407.268 184.091 407.391 184.295 407.469 184.517C407.546 184.739 407.576 184.975 407.557 185.21" fill="#D8896D"/>
<path d="M203.805 138.36C203.583 138.36 203.364 138.31 203.164 138.215C202.963 138.12 202.786 137.982 202.645 137.81L113.645 29.16C113.417 28.8693 113.303 28.5043 113.327 28.1351C113.351 27.7659 113.511 27.4187 113.775 27.16L142.495 0.4C142.767 0.146643 143.124 0.00398148 143.495 0L264.085 0C264.457 0.00493874 264.813 0.147467 265.085 0.4L293.785 27.12C294.053 27.3762 294.216 27.7231 294.242 28.0929C294.268 28.4628 294.155 28.829 293.925 29.12L205.005 137.81C204.862 137.988 204.678 138.131 204.47 138.226C204.262 138.322 204.034 138.367 203.805 138.36V138.36ZM143.515 1C143.39 1.00004 143.269 1.04632 143.175 1.13L114.475 27.85C114.387 27.9413 114.338 28.0632 114.338 28.19C114.338 28.3168 114.387 28.4387 114.475 28.53L203.475 137.17C203.522 137.228 203.582 137.276 203.649 137.309C203.717 137.341 203.79 137.359 203.865 137.36V137.36C203.94 137.359 204.014 137.341 204.082 137.309C204.149 137.276 204.208 137.228 204.255 137.17L293.255 28.53C293.341 28.4375 293.389 28.3161 293.389 28.19C293.389 28.0639 293.341 27.9425 293.255 27.85L264.425 1.13C264.332 1.04632 264.211 1.00004 264.085 1H143.515Z" fill="#D8896D"/>
<path d="M161.106 36.32C160.953 36.2865 160.809 36.2175 160.688 36.1185C160.566 36.0195 160.47 35.8932 160.406 35.75L148.676 9.41C148.607 9.25787 148.578 9.09105 148.591 8.92474C148.603 8.75842 148.657 8.59788 148.748 8.45774C148.838 8.3176 148.962 8.20231 149.109 8.12236C149.255 8.04241 149.419 8.00035 149.586 8H165.766C165.953 7.99963 166.137 8.05193 166.296 8.15094C166.455 8.24996 166.583 8.3917 166.666 8.56L171.896 19.3H178.516C178.72 19.2993 178.92 19.3613 179.088 19.4775C179.256 19.5937 179.384 19.7586 179.456 19.95C179.526 20.1401 179.537 20.3471 179.487 20.5436C179.437 20.74 179.328 20.9166 179.176 21.05L162.006 36.1C161.824 36.2608 161.589 36.3497 161.346 36.35C161.265 36.3518 161.184 36.3417 161.106 36.32V36.32Z" fill="url(#paint0_linear_1904_90218)"/>
<path d="M166.097 37.5299C166.023 37.3395 166.009 37.131 166.058 36.9326C166.106 36.7341 166.214 36.5552 166.367 36.4199L185.517 19.5499C185.694 19.3936 185.921 19.305 186.157 19.2999L192.867 19.1599C193.12 19.1593 193.365 19.255 193.55 19.4276C193.736 19.6003 193.849 19.837 193.867 20.0899L195.107 36.8899C195.117 37.0261 195.099 37.1628 195.054 37.2918C195.01 37.4208 194.939 37.5393 194.847 37.6399C194.753 37.7405 194.641 37.8207 194.515 37.8758C194.389 37.9308 194.254 37.9595 194.117 37.9599L167.017 38.1699C166.817 38.1673 166.623 38.105 166.459 37.9909C166.295 37.8768 166.169 37.7163 166.097 37.5299V37.5299Z" fill="url(#paint1_linear_1904_90218)"/>
<path d="M188.477 106.57L128.837 35.08C128.702 34.9183 128.622 34.7181 128.608 34.508C128.593 34.2979 128.646 34.0886 128.757 33.91C128.869 33.7329 129.033 33.5952 129.227 33.5163C129.42 33.4374 129.634 33.4212 129.837 33.47L158.837 40.62C158.981 40.6569 159.115 40.7254 159.229 40.8205C159.344 40.9157 159.435 41.0351 159.497 41.17L190.107 105.5C190.211 105.72 190.231 105.97 190.164 106.203C190.097 106.437 189.947 106.638 189.742 106.769C189.538 106.9 189.293 106.952 189.052 106.915C188.812 106.879 188.594 106.756 188.437 106.57H188.477Z" fill="url(#paint2_linear_1904_90218)"/>
<path d="M200.005 121.52L163.375 42.4C163.306 42.2491 163.275 42.0833 163.285 41.9174C163.296 41.7515 163.347 41.5909 163.435 41.45C163.525 41.3073 163.648 41.1894 163.795 41.1073C163.942 41.0251 164.107 40.9813 164.275 40.98H194.615C194.867 40.9792 195.11 41.0735 195.296 41.2441C195.481 41.4146 195.595 41.6489 195.615 41.9L201.865 121C201.873 121.227 201.802 121.45 201.666 121.632C201.53 121.813 201.336 121.943 201.115 122C201.032 122.01 200.949 122.01 200.865 122C200.693 122.001 200.523 121.957 200.372 121.873C200.222 121.789 200.095 121.667 200.005 121.52Z" fill="url(#paint3_linear_1904_90218)"/>
<path d="M155.816 36.7801L125.456 29.2901C125.282 29.2463 125.122 29.1565 124.995 29.0299C124.867 28.9033 124.776 28.7447 124.731 28.5707C124.686 28.3967 124.689 28.2139 124.739 28.0413C124.789 27.8687 124.885 27.7129 125.016 27.5901L144.096 9.76007C144.212 9.6514 144.353 9.57202 144.506 9.52854C144.659 9.48506 144.82 9.47873 144.976 9.51007C145.133 9.54065 145.28 9.60837 145.405 9.70754C145.53 9.80671 145.63 9.93445 145.696 10.0801L157.006 35.4001C157.083 35.5706 157.111 35.7595 157.086 35.9451C157.062 36.1308 156.985 36.3057 156.866 36.4501C156.772 36.563 156.654 36.6537 156.521 36.716C156.388 36.7782 156.243 36.8103 156.096 36.8101C156.002 36.8133 155.907 36.8032 155.816 36.7801V36.7801Z" fill="url(#paint4_linear_1904_90218)"/>
<path d="M246.276 36.35C246.033 36.3497 245.798 36.2608 245.616 36.1L228.426 21.1001C228.273 20.9667 228.165 20.7901 228.115 20.5936C228.065 20.3972 228.076 20.1902 228.146 20.0001C228.218 19.8086 228.346 19.6437 228.514 19.5275C228.682 19.4113 228.882 19.3494 229.086 19.3501H235.706L240.936 8.61005C241.019 8.44175 241.147 8.30001 241.306 8.20099C241.465 8.10198 241.649 8.04968 241.836 8.05005H258.006C258.173 8.0504 258.337 8.09246 258.483 8.17241C258.63 8.25235 258.754 8.36765 258.844 8.50779C258.935 8.64793 258.989 8.80846 259.001 8.97478C259.014 9.1411 258.984 9.30792 258.916 9.46005L247.196 35.7501C247.132 35.8933 247.036 36.0195 246.914 36.1185C246.792 36.2175 246.649 36.2866 246.496 36.3201C246.425 36.3405 246.35 36.3506 246.276 36.35V36.35Z" fill="url(#paint5_linear_1904_90218)"/>
<path d="M240.575 38.17L213.465 38C213.328 37.9995 213.193 37.9709 213.067 37.9158C212.942 37.8608 212.829 37.7805 212.735 37.68C212.643 37.5793 212.573 37.4608 212.528 37.3319C212.483 37.2029 212.465 37.0661 212.475 36.93L213.715 20.13C213.733 19.8771 213.846 19.6403 214.032 19.4677C214.218 19.295 214.462 19.1993 214.715 19.2L221.425 19.34C221.662 19.3451 221.888 19.4336 222.065 19.59L241.215 36.46C241.368 36.5942 241.475 36.7717 241.524 36.9687C241.573 37.1657 241.561 37.3729 241.49 37.5628C241.418 37.7528 241.29 37.9164 241.123 38.032C240.957 38.1476 240.758 38.2097 240.555 38.21L240.575 38.17Z" fill="url(#paint6_linear_1904_90218)"/>
<path d="M218.357 106.93C218.188 106.93 218.022 106.886 217.875 106.805C217.727 106.723 217.603 106.605 217.513 106.463C217.423 106.32 217.371 106.157 217.361 105.989C217.351 105.82 217.384 105.652 217.457 105.5L248.067 41.17C248.129 41.0351 248.22 40.9157 248.334 40.8205C248.449 40.7254 248.583 40.6569 248.727 40.62L277.727 33.47C277.93 33.4212 278.144 33.4374 278.337 33.5163C278.531 33.5952 278.695 33.7329 278.807 33.91C278.918 34.0886 278.97 34.2979 278.956 34.508C278.942 34.7181 278.861 34.9183 278.727 35.08L219.087 106.57C218.997 106.678 218.886 106.766 218.76 106.828C218.634 106.89 218.497 106.925 218.357 106.93V106.93Z" fill="url(#paint7_linear_1904_90218)"/>
<path d="M206.737 122.1C206.654 122.11 206.57 122.11 206.487 122.1C206.269 122.041 206.077 121.911 205.942 121.729C205.808 121.547 205.739 121.326 205.747 121.1L212.007 41.8599C212.027 41.6088 212.141 41.3746 212.326 41.204C212.512 41.0334 212.755 40.9391 213.007 40.9399H243.337C243.505 40.9395 243.67 40.9815 243.818 41.062C243.965 41.1425 244.09 41.2588 244.181 41.4004C244.272 41.5419 244.325 41.704 244.337 41.8718C244.348 42.0395 244.317 42.2074 244.247 42.3599L207.657 121.48C207.582 121.663 207.454 121.819 207.291 121.929C207.127 122.04 206.934 122.099 206.737 122.1Z" fill="url(#paint8_linear_1904_90218)"/>
<path d="M251.546 36.81C251.399 36.8103 251.254 36.7781 251.121 36.7159C250.988 36.6537 250.87 36.5629 250.776 36.45C250.657 36.3057 250.58 36.1307 250.556 35.9451C250.531 35.7594 250.559 35.5706 250.636 35.4L261.906 10.08C261.971 9.93406 262.07 9.80582 262.195 9.70603C262.32 9.60625 262.467 9.53782 262.623 9.50648C262.78 9.47514 262.942 9.48181 263.096 9.52592C263.249 9.57003 263.39 9.65031 263.506 9.76002L282.586 27.59C282.717 27.7128 282.813 27.8687 282.863 28.0413C282.913 28.2138 282.916 28.3967 282.871 28.5707C282.826 28.7446 282.735 28.9032 282.607 29.0298C282.48 29.1564 282.32 29.2463 282.146 29.29L251.786 36.78C251.708 36.7997 251.627 36.8098 251.546 36.81Z" fill="url(#paint9_linear_1904_90218)"/>
<defs>
<linearGradient id="paint0_linear_1904_90218" x1="164.056" y1="36.55" x2="164.056" y2="6.54" gradientUnits="userSpaceOnUse">
<stop stop-color="#D9896E"/>
<stop offset="0.99" stop-color="#75233C"/>
<stop offset="1" stop-color="#75233C"/>
</linearGradient>
<linearGradient id="paint1_linear_1904_90218" x1="180.587" y1="19.0499" x2="180.587" y2="41.6899" gradientUnits="userSpaceOnUse">
<stop stop-color="#D9896E"/>
<stop offset="0.99" stop-color="#75233C"/>
<stop offset="1" stop-color="#75233C"/>
</linearGradient>
<linearGradient id="paint2_linear_1904_90218" x1="135.507" y1="27.65" x2="197.007" y2="101.65" gradientUnits="userSpaceOnUse">
<stop stop-color="#D9896E"/>
<stop offset="0.99" stop-color="#75233C"/>
<stop offset="1" stop-color="#75233C"/>
</linearGradient>
<linearGradient id="paint3_linear_1904_90218" x1="201.865" y1="81.52" x2="163.285" y2="81.52" gradientUnits="userSpaceOnUse">
<stop stop-color="#D9896E"/>
<stop offset="0.99" stop-color="#75233C"/>
<stop offset="1" stop-color="#75233C"/>
</linearGradient>
<linearGradient id="paint4_linear_1904_90218" x1="157.056" y1="23.1501" x2="124.706" y2="23.1501" gradientUnits="userSpaceOnUse">
<stop stop-color="#D9896E"/>
<stop offset="0.99" stop-color="#75233C"/>
<stop offset="1" stop-color="#75233C"/>
</linearGradient>
<linearGradient id="paint5_linear_1904_90218" x1="243.546" y1="36.55" x2="243.546" y2="6.54005" gradientUnits="userSpaceOnUse">
<stop stop-color="#D9896E"/>
<stop offset="0.99" stop-color="#75233C"/>
<stop offset="1" stop-color="#75233C"/>
</linearGradient>
<linearGradient id="paint6_linear_1904_90218" x1="227.025" y1="19.05" x2="227.025" y2="41.69" gradientUnits="userSpaceOnUse">
<stop stop-color="#D9896E"/>
<stop offset="0.99" stop-color="#75233C"/>
<stop offset="1" stop-color="#75233C"/>
</linearGradient>
<linearGradient id="paint7_linear_1904_90218" x1="272.107" y1="27.65" x2="210.607" y2="101.65" gradientUnits="userSpaceOnUse">
<stop stop-color="#D9896E"/>
<stop offset="0.99" stop-color="#75233C"/>
<stop offset="1" stop-color="#75233C"/>
</linearGradient>
<linearGradient id="paint8_linear_1904_90218" x1="205.737" y1="81.5199" x2="244.327" y2="81.5199" gradientUnits="userSpaceOnUse">
<stop stop-color="#D9896E"/>
<stop offset="0.99" stop-color="#75233C"/>
<stop offset="1" stop-color="#75233C"/>
</linearGradient>
<linearGradient id="paint9_linear_1904_90218" x1="250.546" y1="23.15" x2="282.906" y2="23.15" gradientUnits="userSpaceOnUse">
<stop stop-color="#D9896E"/>
<stop offset="0.99" stop-color="#75233C"/>
<stop offset="1" stop-color="#75233C"/>
</linearGradient>
</defs>
</svg>
