<svg width="127" height="127" viewBox="0 0 127 127" fill="none" xmlns="http://www.w3.org/2000/svg">
<g clip-path="url(#clip0_1904_90258)">
<path d="M118.928 76.2987C126.202 45.4775 107.114 14.5949 76.2924 7.32043C45.4712 0.045968 14.5886 19.1344 7.31415 49.9555C0.039692 80.7767 19.1281 111.659 49.9493 118.934C80.7704 126.208 111.653 107.12 118.928 76.2987Z" fill="#75223B"/>
<path d="M63.1203 126.25C50.6343 126.25 38.4288 122.548 28.0471 115.611C17.6654 108.674 9.57391 98.8143 4.79575 87.2788C0.0175877 75.7433 -1.2326 63.05 1.20329 50.804C3.63917 38.5579 9.65172 27.3093 18.4806 18.4804C27.3095 9.65148 38.5582 3.63893 50.8042 1.20304C63.0502 -1.23284 75.7436 0.0173435 87.2791 4.7955C98.8146 9.57366 108.674 17.6652 115.611 28.0469C122.548 38.4285 126.25 50.6341 126.25 63.12C126.232 79.8575 119.575 95.904 107.739 107.739C95.9043 119.574 79.8577 126.231 63.1203 126.25ZM63.1203 0.530019C50.7387 0.530019 38.6353 4.2017 28.3405 11.0807C18.0458 17.9597 10.0222 27.7371 5.28445 39.1763C0.546696 50.6156 -0.692409 63.2029 1.72384 75.3464C4.14008 87.4898 10.1031 98.6441 18.8589 107.398C27.6147 116.153 38.7699 122.114 50.9137 124.528C63.0576 126.943 75.6447 125.702 87.0832 120.962C98.5217 116.222 108.298 108.197 115.175 97.9014C122.052 87.6056 125.722 75.5016 125.72 63.12C125.702 46.5241 119.1 30.6133 107.364 18.8791C95.628 7.14497 79.7162 0.5459 63.1203 0.530019Z" fill="#D8896D"/>
<path d="M63.1298 106C63.013 106 62.8977 105.974 62.7922 105.924C62.6867 105.873 62.5937 105.801 62.5198 105.71L15.7598 48.5801C15.6324 48.4266 15.5687 48.2302 15.5817 48.0311C15.5948 47.8321 15.6835 47.6457 15.8298 47.5101L30.9098 33.5101C31.0561 33.3733 31.2495 33.2982 31.4498 33.3001H94.7998C95.0001 33.2982 95.1934 33.3733 95.3398 33.5101L110.42 47.5101C110.566 47.6457 110.655 47.8321 110.668 48.0311C110.681 48.2302 110.617 48.4266 110.49 48.5801L63.7398 105.67C63.6689 105.767 63.5774 105.847 63.4719 105.904C63.3664 105.961 63.2495 105.994 63.1298 106ZM31.4498 33.7801C31.3835 33.7822 31.32 33.8069 31.2698 33.8501L16.1898 47.8501C16.1474 47.9005 16.1242 47.9642 16.1242 48.0301C16.1242 48.0959 16.1474 48.1597 16.1898 48.2101L62.9498 105.29C62.9718 105.322 63.0018 105.349 63.0368 105.366C63.0718 105.384 63.1107 105.392 63.1498 105.39C63.1884 105.389 63.2265 105.38 63.2611 105.363C63.2957 105.345 63.326 105.321 63.3498 105.29L110.11 48.2101C110.152 48.1597 110.175 48.0959 110.175 48.0301C110.175 47.9642 110.152 47.9005 110.11 47.8501L94.9998 33.8601C94.9767 33.8353 94.9489 33.8154 94.918 33.8016C94.887 33.7879 94.8536 33.7805 94.8198 33.7801H31.4498Z" fill="#D8896D"/>
<path d="M40.6886 52.35C40.6087 52.3302 40.5341 52.2931 40.4701 52.2413C40.4062 52.1894 40.3545 52.1241 40.3186 52.05L34.1586 38.2C34.124 38.1198 34.1098 38.0324 34.1171 37.9455C34.1244 37.8585 34.1531 37.7747 34.2006 37.7015C34.2481 37.6283 34.3129 37.5679 34.3893 37.5258C34.4657 37.4837 34.5514 37.461 34.6386 37.46H43.1386C43.2371 37.4614 43.3333 37.4902 43.4163 37.5432C43.4993 37.5962 43.5659 37.6712 43.6086 37.76L46.3586 43.4H49.8386C49.9446 43.4017 50.0476 43.4352 50.1343 43.4961C50.221 43.5569 50.2875 43.6424 50.3252 43.7414C50.3629 43.8405 50.37 43.9485 50.3457 44.0516C50.3213 44.1548 50.2666 44.2482 50.1886 44.32L41.1886 52.23C41.0903 52.3121 40.9667 52.3579 40.8386 52.36L40.6886 52.35Z" fill="url(#paint0_linear_1904_90258)"/>
<path d="M43.3088 53C43.2694 52.8998 43.2627 52.7898 43.2897 52.6856C43.3166 52.5815 43.3758 52.4885 43.4588 52.42L53.5188 43.55C53.6097 43.4686 53.7268 43.4224 53.8488 43.42L57.3788 43.35C57.5118 43.347 57.6408 43.3951 57.7394 43.4844C57.838 43.5737 57.8986 43.6974 57.9088 43.83L58.5688 52.66C58.5743 52.7327 58.5646 52.8058 58.5405 52.8746C58.5165 52.9434 58.4784 53.0065 58.4288 53.06C58.3265 53.1602 58.1917 53.2205 58.0488 53.23L43.8088 53.33C43.7016 53.3333 43.596 53.3033 43.5065 53.2442C43.417 53.1851 43.348 53.0998 43.3088 53Z" fill="url(#paint1_linear_1904_90258)"/>
<path d="M55.0687 89.26L23.7287 51.69C23.665 51.5992 23.6309 51.4909 23.6309 51.38C23.6309 51.2691 23.665 51.1608 23.7287 51.07C23.788 50.9772 23.8748 50.9052 23.977 50.8639C24.0791 50.8227 24.1916 50.8144 24.2987 50.84L39.5187 54.6C39.5941 54.6212 39.6642 54.658 39.7245 54.7079C39.7847 54.7579 39.8339 54.8199 39.8687 54.89L55.9987 88.69C56.0533 88.8058 56.0641 88.9374 56.0292 89.0606C55.9943 89.1838 55.916 89.2901 55.8087 89.36C55.7223 89.4152 55.6212 89.4431 55.5187 89.44C55.4347 89.4488 55.3499 89.437 55.2715 89.4056C55.193 89.3743 55.1235 89.3243 55.0687 89.26Z" fill="url(#paint2_linear_1904_90258)"/>
<path d="M61.0998 97.11L41.8799 55.54C41.8431 55.4595 41.8271 55.371 41.8334 55.2826C41.8396 55.1943 41.8679 55.1089 41.9156 55.0343C41.9634 54.9597 42.029 54.8983 42.1066 54.8556C42.1842 54.813 42.2713 54.7904 42.3598 54.79H58.2998C58.4311 54.7897 58.5576 54.8389 58.6541 54.9279C58.7505 55.017 58.8098 55.1392 58.8198 55.27L62.0998 96.87C62.1088 96.9927 62.0747 97.1147 62.0036 97.2151C61.9324 97.3154 61.8286 97.3879 61.7098 97.42H61.5799C61.4786 97.4196 61.3796 97.3902 61.2945 97.3353C61.2094 97.2803 61.1419 97.2022 61.0998 97.11Z" fill="url(#paint3_linear_1904_90258)"/>
<path d="M37.9097 52.59L21.9997 48.65C21.9073 48.6284 21.8228 48.5813 21.7556 48.5142C21.6885 48.447 21.6414 48.3625 21.6197 48.27C21.5966 48.1794 21.5982 48.0842 21.6246 47.9944C21.651 47.9047 21.7012 47.8237 21.7697 47.76L31.7697 38.39C31.8313 38.3336 31.9054 38.2925 31.9859 38.2701C32.0664 38.2477 32.1511 38.2447 32.233 38.2613C32.3149 38.2778 32.3917 38.3135 32.4572 38.3655C32.5227 38.4174 32.5749 38.4841 32.6097 38.56L38.5397 51.86C38.5743 51.9402 38.5886 52.0276 38.5813 52.1145C38.574 52.2015 38.5453 52.2853 38.4978 52.3585C38.4503 52.4317 38.3855 52.4921 38.3091 52.5342C38.2326 52.5763 38.147 52.599 38.0597 52.6L37.9097 52.59Z" fill="url(#paint4_linear_1904_90258)"/>
<path d="M85.4389 52.36C85.3138 52.3581 85.1934 52.3121 85.0989 52.23L76.0989 44.32C76.0209 44.2482 75.9663 44.1548 75.9419 44.0516C75.9176 43.9485 75.9247 43.8405 75.9624 43.7414C76 43.6424 76.0665 43.5569 76.1533 43.4961C76.24 43.4352 76.343 43.4017 76.4489 43.4H79.9289L82.6789 37.76C82.7207 37.6705 82.7871 37.5948 82.8703 37.5416C82.9535 37.4885 83.0502 37.4602 83.1489 37.46H91.6489C91.7362 37.461 91.8218 37.4837 91.8982 37.5258C91.9747 37.5679 92.0395 37.6283 92.087 37.7015C92.1345 37.7747 92.1631 37.8585 92.1705 37.9455C92.1778 38.0324 92.1635 38.1198 92.1289 38.2L85.9189 52.05C85.8866 52.1247 85.8372 52.1907 85.7746 52.2428C85.7121 52.2949 85.6382 52.3316 85.5589 52.35L85.4389 52.36Z" fill="url(#paint5_linear_1904_90258)"/>
<path d="M82.449 53.31L68.209 53.21C68.0661 53.2005 67.9313 53.1402 67.829 53.04C67.7794 52.9865 67.7413 52.9234 67.7173 52.8546C67.6932 52.7858 67.6835 52.7127 67.689 52.64L68.339 43.81C68.3516 43.6765 68.4143 43.5528 68.5145 43.4637C68.6147 43.3746 68.7449 43.3269 68.879 43.33L72.399 43.4C72.5244 43.4 72.6455 43.4463 72.739 43.53L82.789 52.4C82.8696 52.4702 82.927 52.5632 82.9538 52.6668C82.9806 52.7703 82.9754 52.8795 82.939 52.98C82.8993 53.0774 82.8315 53.1608 82.7442 53.2196C82.657 53.2783 82.5542 53.3098 82.449 53.31Z" fill="url(#paint6_linear_1904_90258)"/>
<path d="M70.7686 89.44C70.6694 89.4417 70.572 89.4139 70.4886 89.36C70.3814 89.2901 70.3031 89.1838 70.2682 89.0606C70.2332 88.9374 70.2441 88.8058 70.2986 88.69L86.3786 54.89C86.4135 54.8199 86.4626 54.7579 86.5229 54.7079C86.5832 54.658 86.6533 54.6212 86.7286 54.6L101.999 50.84C102.106 50.8144 102.218 50.8227 102.32 50.8639C102.423 50.9052 102.509 50.9772 102.569 51.07C102.634 51.1603 102.669 51.2687 102.669 51.38C102.669 51.4913 102.634 51.5997 102.569 51.69L71.1786 89.26C71.1267 89.3171 71.0634 89.3626 70.9928 89.3936C70.9222 89.4246 70.8458 89.4404 70.7686 89.44Z" fill="url(#paint7_linear_1904_90258)"/>
<path d="M64.6696 97.41H64.5296C64.4118 97.3762 64.3091 97.3033 64.2382 97.2034C64.1673 97.1034 64.1325 96.9824 64.1396 96.86L67.4296 55.26C67.4397 55.1292 67.4989 55.007 67.5953 54.9179C67.6918 54.8289 67.8183 54.7796 67.9496 54.78H83.8896C83.9772 54.7829 84.0628 54.807 84.139 54.8503C84.2152 54.8936 84.2798 54.9548 84.327 55.0287C84.3743 55.1025 84.4028 55.1867 84.4103 55.2741C84.4177 55.3614 84.4037 55.4493 84.3696 55.53L65.1396 97.11C65.0999 97.2011 65.034 97.2782 64.9503 97.3316C64.8666 97.3851 64.7688 97.4124 64.6696 97.41Z" fill="url(#paint8_linear_1904_90258)"/>
<path d="M88.2089 52.5999C88.1217 52.5989 88.036 52.5762 87.9596 52.5341C87.8832 52.492 87.8184 52.4316 87.7709 52.3584C87.7234 52.2852 87.6947 52.2014 87.6874 52.1144C87.6801 52.0275 87.6944 51.9401 87.7289 51.86L93.6589 38.56C93.6892 38.4821 93.7392 38.4134 93.8041 38.3608C93.869 38.3082 93.9465 38.2734 94.0289 38.2599C94.1103 38.2405 94.1953 38.2423 94.2759 38.2651C94.3564 38.2878 94.4297 38.3308 94.4889 38.3899L104.489 47.7599C104.558 47.8236 104.608 47.9046 104.634 47.9943C104.66 48.0841 104.662 48.1793 104.639 48.2699C104.616 48.3619 104.569 48.4459 104.502 48.5128C104.435 48.5798 104.351 48.6272 104.259 48.65L88.2589 52.5899L88.2089 52.5999Z" fill="url(#paint9_linear_1904_90258)"/>
</g>
<defs>
<linearGradient id="paint0_linear_1904_90258" x1="42.2386" y1="52.46" x2="42.2386" y2="36.7" gradientUnits="userSpaceOnUse">
<stop stop-color="#D9896E"/>
<stop offset="0.99" stop-color="#75233C"/>
<stop offset="1" stop-color="#75233C"/>
</linearGradient>
<linearGradient id="paint1_linear_1904_90258" x1="50.9188" y1="43.27" x2="50.9188" y2="55.16" gradientUnits="userSpaceOnUse">
<stop stop-color="#D9896E"/>
<stop offset="0.99" stop-color="#75233C"/>
<stop offset="1" stop-color="#75233C"/>
</linearGradient>
<linearGradient id="paint2_linear_1904_90258" x1="27.2287" y1="47.79" x2="59.5487" y2="86.67" gradientUnits="userSpaceOnUse">
<stop stop-color="#D9896E"/>
<stop offset="0.99" stop-color="#75233C"/>
<stop offset="1" stop-color="#75233C"/>
</linearGradient>
<linearGradient id="paint3_linear_1904_90258" x1="62.0998" y1="76.09" x2="41.8299" y2="76.09" gradientUnits="userSpaceOnUse">
<stop stop-color="#D9896E"/>
<stop offset="0.99" stop-color="#75233C"/>
<stop offset="1" stop-color="#75233C"/>
</linearGradient>
<linearGradient id="paint4_linear_1904_90258" x1="38.5597" y1="45.42" x2="21.5597" y2="45.42" gradientUnits="userSpaceOnUse">
<stop stop-color="#D9896E"/>
<stop offset="0.99" stop-color="#75233C"/>
<stop offset="1" stop-color="#75233C"/>
</linearGradient>
<linearGradient id="paint5_linear_1904_90258" x1="84.0089" y1="52.46" x2="84.0089" y2="36.7" gradientUnits="userSpaceOnUse">
<stop stop-color="#D9896E"/>
<stop offset="0.99" stop-color="#75233C"/>
<stop offset="1" stop-color="#75233C"/>
</linearGradient>
<linearGradient id="paint6_linear_1904_90258" x1="75.329" y1="43.27" x2="75.329" y2="55.16" gradientUnits="userSpaceOnUse">
<stop stop-color="#D9896E"/>
<stop offset="0.99" stop-color="#75233C"/>
<stop offset="1" stop-color="#75233C"/>
</linearGradient>
<linearGradient id="paint7_linear_1904_90258" x1="99.0086" y1="47.79" x2="66.6986" y2="86.67" gradientUnits="userSpaceOnUse">
<stop stop-color="#D9896E"/>
<stop offset="0.99" stop-color="#75233C"/>
<stop offset="1" stop-color="#75233C"/>
</linearGradient>
<linearGradient id="paint8_linear_1904_90258" x1="64.1396" y1="76.09" x2="84.4196" y2="76.09" gradientUnits="userSpaceOnUse">
<stop stop-color="#D9896E"/>
<stop offset="0.99" stop-color="#75233C"/>
<stop offset="1" stop-color="#75233C"/>
</linearGradient>
<linearGradient id="paint9_linear_1904_90258" x1="87.6889" y1="45.4199" x2="104.689" y2="45.4199" gradientUnits="userSpaceOnUse">
<stop stop-color="#D9896E"/>
<stop offset="0.99" stop-color="#75233C"/>
<stop offset="1" stop-color="#75233C"/>
</linearGradient>
<clipPath id="clip0_1904_90258">
<rect width="126.25" height="126.25" fill="white"/>
</clipPath>
</defs>
</svg>
