<svg width="127" height="127" viewBox="0 0 127 127" fill="none" xmlns="http://www.w3.org/2000/svg">
<g clip-path="url(#clip0_1904_90242)">
<path d="M63.1193 120.46C94.7873 120.46 120.459 94.788 120.459 63.12C120.459 31.452 94.7873 5.78003 63.1193 5.78003C31.4513 5.78003 5.7793 31.452 5.7793 63.12C5.7793 94.788 31.4513 120.46 63.1193 120.46Z" fill="#D8896D"/>
<path d="M63.1203 126.25C50.6343 126.25 38.4288 122.548 28.0471 115.611C17.6654 108.674 9.57391 98.8143 4.79575 87.2788C0.0175877 75.7433 -1.2326 63.05 1.20329 50.804C3.63917 38.5579 9.65172 27.3093 18.4806 18.4804C27.3095 9.65148 38.5582 3.63893 50.8042 1.20304C63.0502 -1.23284 75.7436 0.0173435 87.2791 4.7955C98.8146 9.57366 108.674 17.6652 115.611 28.0469C122.548 38.4285 126.25 50.6341 126.25 63.12C126.232 79.8575 119.575 95.904 107.739 107.739C95.9043 119.574 79.8577 126.231 63.1203 126.25ZM63.1203 0.530019C50.7387 0.530019 38.6353 4.2017 28.3405 11.0807C18.0458 17.9597 10.0222 27.7371 5.28445 39.1763C0.546696 50.6156 -0.692409 63.2029 1.72384 75.3464C4.14008 87.4898 10.1031 98.6441 18.8589 107.398C27.6147 116.153 38.7699 122.114 50.9137 124.528C63.0576 126.943 75.6447 125.702 87.0832 120.962C98.5217 116.222 108.298 108.197 115.175 97.9014C122.052 87.6056 125.722 75.5016 125.72 63.12C125.702 46.5241 119.1 30.6133 107.364 18.8791C95.628 7.14497 79.7162 0.5459 63.1203 0.530019Z" fill="#75223B"/>
<path d="M63.1307 107.79C63.0136 107.792 62.8976 107.767 62.7917 107.716C62.6859 107.666 62.5932 107.592 62.5207 107.5L15.7607 50.4199C15.6327 50.2648 15.5687 50.0667 15.5817 49.866C15.5947 49.6654 15.6838 49.4772 15.8307 49.3399L30.9107 35.3399C31.0571 35.2032 31.2504 35.128 31.4507 35.1299H94.8007C95.001 35.128 95.1944 35.2032 95.3407 35.3399L110.421 49.3399C110.568 49.4772 110.657 49.6654 110.67 49.866C110.683 50.0667 110.619 50.2648 110.491 50.4199L63.7407 107.5C63.6673 107.591 63.5743 107.664 63.4687 107.714C63.3632 107.765 63.2476 107.79 63.1307 107.79ZM31.4507 35.6199C31.3845 35.622 31.321 35.6467 31.2707 35.6899L16.1907 49.6899C16.1464 49.7394 16.122 49.8035 16.122 49.8699C16.122 49.9363 16.1464 50.0004 16.1907 50.0499L62.9507 107.13C62.9745 107.16 63.0048 107.185 63.0394 107.203C63.074 107.22 63.112 107.229 63.1507 107.23C63.1894 107.229 63.2274 107.22 63.262 107.203C63.2966 107.185 63.3269 107.16 63.3507 107.13L110.111 50.0499C110.155 50.0004 110.179 49.9363 110.179 49.8699C110.179 49.8035 110.155 49.7394 110.111 49.6899L95.0007 35.6899C94.9505 35.6467 94.887 35.622 94.8207 35.6199H31.4507Z" fill="#75223B"/>
<path d="M40.6906 54.18C40.6092 54.1639 40.5329 54.1282 40.4684 54.0759C40.4039 54.0236 40.3532 53.9564 40.3206 53.88L34.1606 40C34.126 39.9199 34.1117 39.8325 34.1191 39.7455C34.1264 39.6586 34.1551 39.5748 34.2025 39.5016C34.25 39.4284 34.3149 39.368 34.3913 39.3259C34.4677 39.2837 34.5533 39.2611 34.6406 39.26H43.1406C43.2396 39.259 43.3368 39.2869 43.4202 39.3401C43.5037 39.3934 43.5698 39.4698 43.6106 39.56L46.3606 45.2H49.8406C49.9476 45.1981 50.0525 45.2299 50.1405 45.2909C50.2284 45.352 50.2949 45.4391 50.3306 45.54C50.3682 45.6396 50.3749 45.7482 50.35 45.8516C50.325 45.9551 50.2695 46.0486 50.1906 46.12L41.1906 54.02C41.0945 54.1061 40.9695 54.1525 40.8406 54.15L40.6906 54.18Z" fill="url(#paint0_linear_1904_90242)"/>
<path d="M43.3108 54.8099C43.273 54.7096 43.2671 54.6 43.2939 54.4961C43.3208 54.3923 43.3791 54.2993 43.4608 54.2299L53.5208 45.3699C53.6117 45.2885 53.7288 45.2424 53.8508 45.2399L57.3808 45.1599C57.5147 45.1595 57.6438 45.2098 57.7421 45.3007C57.8405 45.3916 57.9007 45.5164 57.9108 45.6499L58.5708 54.4799C58.5761 54.5511 58.5663 54.6226 58.5422 54.6898C58.5181 54.757 58.4802 54.8183 58.4308 54.8699C58.3826 54.9229 58.324 54.9653 58.2586 54.9946C58.1932 55.0239 58.1225 55.0393 58.0508 55.0399L43.8108 55.1499C43.7024 55.1524 43.596 55.121 43.5063 55.0601C43.4167 54.9991 43.3483 54.9116 43.3108 54.8099Z" fill="url(#paint1_linear_1904_90242)"/>
<path d="M55.0707 91.0901L23.7307 53.5301C23.667 53.4392 23.6328 53.331 23.6328 53.2201C23.6328 53.1091 23.667 53.0009 23.7307 52.9101C23.7889 52.8161 23.8755 52.7432 23.978 52.7018C24.0805 52.6605 24.1935 52.6529 24.3007 52.6801L39.5607 56.4401C39.6369 56.4594 39.7078 56.4955 39.7683 56.5456C39.8289 56.5958 39.8775 56.6588 39.9107 56.7301L56.0007 90.5301C56.0552 90.6459 56.0661 90.7775 56.0312 90.9007C55.9962 91.0238 55.9179 91.1302 55.8107 91.2001C55.7224 91.2509 55.6226 91.2785 55.5207 91.2801C55.4357 91.2895 55.3497 91.277 55.2709 91.2438C55.1921 91.2105 55.1232 91.1576 55.0707 91.0901Z" fill="url(#paint2_linear_1904_90242)"/>
<path d="M61.1005 99.0001L41.8805 57.3801C41.8409 57.301 41.8203 57.2137 41.8203 57.1251C41.8203 57.0366 41.8409 56.9493 41.8805 56.8701C41.93 56.7961 41.9969 56.7355 42.0754 56.6937C42.1539 56.6518 42.2416 56.63 42.3305 56.6301H58.2705C58.4018 56.6297 58.5283 56.679 58.6248 56.768C58.7212 56.8571 58.7804 56.9793 58.7905 57.1101L62.1005 98.6801C62.1136 98.8036 62.0812 98.9275 62.0094 99.0288C61.9376 99.13 61.8313 99.2016 61.7105 99.2301H61.5805C61.4876 99.2355 61.3948 99.2173 61.3109 99.1771C61.2269 99.1368 61.1545 99.076 61.1005 99.0001Z" fill="url(#paint3_linear_1904_90242)"/>
<path d="M37.9107 54.42L22.0007 50.49C21.9087 50.4672 21.8247 50.4198 21.7578 50.3529C21.6908 50.2859 21.6434 50.2019 21.6207 50.11C21.5966 50.0178 21.5979 49.9209 21.6243 49.8294C21.6507 49.7379 21.7012 49.6552 21.7707 49.59L31.7707 40.22C31.8345 40.1649 31.9098 40.1246 31.9911 40.1022C32.0723 40.0797 32.1576 40.0755 32.2407 40.09C32.3206 40.1097 32.3952 40.1468 32.4591 40.1987C32.5231 40.2505 32.5748 40.3158 32.6107 40.39L38.5207 53.7C38.5552 53.7801 38.5695 53.8675 38.5622 53.9545C38.5549 54.0414 38.5262 54.1252 38.4787 54.1984C38.4312 54.2716 38.3664 54.332 38.29 54.3741C38.2135 54.4163 38.1279 54.4389 38.0407 54.44L37.9107 54.42Z" fill="url(#paint4_linear_1904_90242)"/>
<path d="M85.44 54.1899C85.3139 54.1929 85.1918 54.1462 85.0999 54.0599L76.0999 46.1599C76.0211 46.0885 75.9655 45.995 75.9406 45.8915C75.9156 45.7881 75.9224 45.6795 75.9599 45.5799C75.9956 45.479 76.0621 45.3919 76.1501 45.3309C76.238 45.2698 76.3429 45.238 76.4499 45.2399H79.9299L82.6799 39.5999C82.7196 39.5089 82.7855 39.4318 82.8692 39.3783C82.953 39.3249 83.0507 39.2976 83.15 39.2999H91.65C91.7372 39.301 91.8228 39.3236 91.8993 39.3658C91.9757 39.4079 92.0405 39.4683 92.088 39.5415C92.1355 39.6147 92.1642 39.6985 92.1715 39.7854C92.1788 39.8724 92.1645 39.9598 92.1299 40.0399L85.9199 53.8799C85.8906 53.9565 85.8421 54.0243 85.779 54.0769C85.716 54.1294 85.6406 54.1649 85.5599 54.1799L85.44 54.1899Z" fill="url(#paint5_linear_1904_90242)"/>
<path d="M82.4511 55.15L68.2011 55C68.1294 54.9994 68.0587 54.9839 67.9933 54.9547C67.9279 54.9254 67.8693 54.883 67.8211 54.83C67.7717 54.7784 67.7338 54.717 67.7097 54.6499C67.6856 54.5827 67.6758 54.5112 67.6811 54.44L68.3311 45.61C68.3413 45.4747 68.403 45.3485 68.5034 45.2574C68.6039 45.1662 68.7355 45.1171 68.8711 45.12L72.3911 45.2C72.5165 45.2 72.6376 45.2463 72.7311 45.33L82.7911 54.19C82.8717 54.2603 82.9291 54.3533 82.9559 54.4568C82.9827 54.5603 82.9775 54.6695 82.9411 54.77C82.9096 54.8768 82.8454 54.9709 82.7574 55.0391C82.6695 55.1073 82.5623 55.1461 82.4511 55.15Z" fill="url(#paint6_linear_1904_90242)"/>
<path d="M70.7706 91.2801C70.6721 91.2768 70.5759 91.2493 70.4906 91.2001C70.3834 91.1302 70.305 91.0238 70.2701 90.9007C70.2352 90.7775 70.246 90.6459 70.3006 90.5301L86.3806 56.7301C86.4138 56.6588 86.4624 56.5958 86.5229 56.5456C86.5835 56.4955 86.6544 56.4594 86.7306 56.4401L102.001 52.6801C102.108 52.6529 102.221 52.6605 102.323 52.7018C102.426 52.7432 102.512 52.8161 102.571 52.9101C102.636 53.0003 102.671 53.1088 102.671 53.2201C102.671 53.3314 102.636 53.4398 102.571 53.5301L71.1806 91.0901C71.1305 91.15 71.0677 91.1981 70.9969 91.231C70.926 91.2638 70.8487 91.2806 70.7706 91.2801Z" fill="url(#paint7_linear_1904_90242)"/>
<path d="M64.6707 99.2499H64.5307C64.411 99.2195 64.306 99.1475 64.2345 99.0467C64.163 98.9459 64.1298 98.823 64.1407 98.6999L67.4307 57.1099C67.4408 56.9791 67.5 56.8569 67.5965 56.7678C67.6929 56.6788 67.8195 56.6295 67.9507 56.6299H83.8907C83.9785 56.6287 84.0651 56.6501 84.1422 56.6922C84.2193 56.7342 84.2842 56.7954 84.3307 56.8699C84.3727 56.9484 84.3947 57.036 84.3947 57.1249C84.3947 57.2139 84.3727 57.3015 84.3307 57.3799L65.1407 98.9999C65.0922 99.0801 65.0229 99.1456 64.9401 99.1896C64.8574 99.2336 64.7643 99.2545 64.6707 99.2499Z" fill="url(#paint8_linear_1904_90242)"/>
<path d="M88.2109 54.4401C88.1236 54.439 88.038 54.4164 87.9616 54.3742C87.8852 54.3321 87.8203 54.2718 87.7729 54.1985C87.7254 54.1253 87.6967 54.0415 87.6894 53.9546C87.682 53.8676 87.6963 53.7802 87.7309 53.7001L93.6609 40.3901C93.6942 40.3142 93.7452 40.2474 93.8095 40.1952C93.8739 40.143 93.9498 40.107 94.0309 40.0901C94.1124 40.075 94.1963 40.0789 94.2761 40.1014C94.3558 40.124 94.4293 40.1646 94.4909 40.2201L104.491 49.5901C104.56 49.6553 104.611 49.738 104.637 49.8295C104.664 49.921 104.665 50.0179 104.641 50.1101C104.616 50.2011 104.568 50.284 104.502 50.3507C104.435 50.4174 104.352 50.4654 104.261 50.4901L88.2609 54.4201L88.2109 54.4401Z" fill="url(#paint9_linear_1904_90242)"/>
</g>
<defs>
<linearGradient id="paint0_linear_1904_90242" x1="42.2406" y1="54.3" x2="42.2406" y2="38.53" gradientUnits="userSpaceOnUse">
<stop stop-color="#D9896E"/>
<stop offset="0.99" stop-color="#75233C"/>
<stop offset="1" stop-color="#75233C"/>
</linearGradient>
<linearGradient id="paint1_linear_1904_90242" x1="50.9208" y1="45.0999" x2="50.9208" y2="56.9999" gradientUnits="userSpaceOnUse">
<stop stop-color="#D9896E"/>
<stop offset="0.99" stop-color="#75233C"/>
<stop offset="1" stop-color="#75233C"/>
</linearGradient>
<linearGradient id="paint2_linear_1904_90242" x1="27.2407" y1="49.6201" x2="59.5507" y2="88.5001" gradientUnits="userSpaceOnUse">
<stop stop-color="#D9896E"/>
<stop offset="0.99" stop-color="#75233C"/>
<stop offset="1" stop-color="#75233C"/>
</linearGradient>
<linearGradient id="paint3_linear_1904_90242" x1="62.1105" y1="77.9301" x2="41.8305" y2="77.9301" gradientUnits="userSpaceOnUse">
<stop stop-color="#D9896E"/>
<stop offset="0.99" stop-color="#75233C"/>
<stop offset="1" stop-color="#75233C"/>
</linearGradient>
<linearGradient id="paint4_linear_1904_90242" x1="38.5607" y1="47.26" x2="21.5607" y2="47.26" gradientUnits="userSpaceOnUse">
<stop stop-color="#D9896E"/>
<stop offset="0.99" stop-color="#75233C"/>
<stop offset="1" stop-color="#75233C"/>
</linearGradient>
<linearGradient id="paint5_linear_1904_90242" x1="84.0099" y1="54.2999" x2="84.0099" y2="38.5299" gradientUnits="userSpaceOnUse">
<stop stop-color="#D9896E"/>
<stop offset="0.99" stop-color="#75233C"/>
<stop offset="1" stop-color="#75233C"/>
</linearGradient>
<linearGradient id="paint6_linear_1904_90242" x1="75.3311" y1="45.1" x2="75.3311" y2="57" gradientUnits="userSpaceOnUse">
<stop stop-color="#D9896E"/>
<stop offset="0.99" stop-color="#75233C"/>
<stop offset="1" stop-color="#75233C"/>
</linearGradient>
<linearGradient id="paint7_linear_1904_90242" x1="99.0106" y1="49.6201" x2="66.7006" y2="88.5001" gradientUnits="userSpaceOnUse">
<stop stop-color="#D9896E"/>
<stop offset="0.99" stop-color="#75233C"/>
<stop offset="1" stop-color="#75233C"/>
</linearGradient>
<linearGradient id="paint8_linear_1904_90242" x1="64.1407" y1="77.9299" x2="84.4207" y2="77.9299" gradientUnits="userSpaceOnUse">
<stop stop-color="#D9896E"/>
<stop offset="0.99" stop-color="#75233C"/>
<stop offset="1" stop-color="#75233C"/>
</linearGradient>
<linearGradient id="paint9_linear_1904_90242" x1="87.6909" y1="47.2601" x2="104.691" y2="47.2601" gradientUnits="userSpaceOnUse">
<stop stop-color="#D9896E"/>
<stop offset="0.99" stop-color="#75233C"/>
<stop offset="1" stop-color="#75233C"/>
</linearGradient>
<clipPath id="clip0_1904_90242">
<rect width="126.25" height="126.25" fill="white"/>
</clipPath>
</defs>
</svg>
