<svg width="24" height="24" viewBox="0 0 24 24" fill="none" xmlns="http://www.w3.org/2000/svg">
<path d="M13.8183 4C13.8183 4.53043 13.6267 5.03914 13.2857 5.41421C12.9448 5.78929 12.4823 6 12.0001 6C11.5179 6 11.0554 5.78929 10.7145 5.41421C10.3735 5.03914 10.1819 4.53043 10.1819 4C10.1819 3.46957 10.3735 2.96086 10.7145 2.58579C11.0554 2.21071 11.5179 2 12.0001 2C12.4823 2 12.9448 2.21071 13.2857 2.58579C13.6267 2.96086 13.8183 3.46957 13.8183 4ZM9.27283 9.41C9.17419 9.6665 9.08646 10.005 9.01646 10.4075C8.83192 11.4655 8.81828 12.6365 8.81828 13C8.81828 13 7.24111 13 7 13C7 12.6135 7.01192 11.2845 7.23101 10.03C7.33919 9.412 7.51101 8.7265 7.80601 8.1715C8.10192 7.614 8.63419 7 9.47465 7H14.5256C15.366 7 15.8983 7.614 16.1942 8.1715C16.4892 8.7265 16.661 9.4115 16.7692 10.03C16.9883 11.2845 17.0001 12.6135 17.0001 13H15.1819C15.1819 12.6365 15.1683 11.4655 14.9837 10.4075C14.9133 10.005 14.826 9.6665 14.7274 9.4105V22H13L12.4574 14.5765C12.4556 14.551 12.4547 14.5255 12.4546 14.5H11.5456C11.5456 14.5255 11.5446 14.551 11.5428 14.5765L11 22H9.27283V9.41Z" fill="inherit"/>
</svg>
