<svg width="24" height="24" viewBox="0 0 24 24" fill="none" xmlns="http://www.w3.org/2000/svg">
<path fill-rule="evenodd" clip-rule="evenodd" d="M8.21848 2.6824C8.37478 2.39668 8.60814 2.18702 8.89232 2.07698C9.07471 2.00633 9.24673 2.00207 11.9895 2.00032C14.761 1.99852 14.9029 2.00195 15.0972 2.07514C15.4088 2.19244 15.6344 2.39879 15.7869 2.70587L15.9195 2.97294V4.15V5.32705L15.7869 5.59412C15.7006 5.76784 15.5925 5.91132 15.4776 6.00467C15.2804 6.1648 14.9561 6.30155 14.7734 6.30155H14.6532V7.29763V8.29372L16.3919 8.29432C18.3142 8.29496 18.4385 8.30735 18.8906 8.54286C19.2153 8.71196 19.5962 9.09023 19.7541 9.40046C19.7898 9.47048 19.8203 9.52513 19.8464 9.58182C20.0095 9.93617 19.9999 10.37 19.9999 15.1333C19.9999 18.6515 19.9865 20.2266 19.9555 20.3743C19.8757 20.7534 19.6896 21.0799 19.3805 21.383C19.2237 21.5368 19.0036 21.711 18.8914 21.7702C18.8378 21.7984 18.7954 21.8232 18.7516 21.8449C18.4199 22.0093 18.0021 21.9999 12.0007 21.9999C6.07213 21.9999 5.77493 21.9965 5.51829 21.926C5.15793 21.8269 4.84501 21.6333 4.5616 21.334C4.30705 21.0651 4.11477 20.7083 4.0445 20.3743C4.01342 20.2266 4.00008 18.6515 4.00008 15.1333C4.00008 10.3677 3.99181 9.94161 4.14804 9.58824C4.17185 9.53438 4.19949 9.48222 4.23155 9.41663C4.38073 9.11147 4.79878 8.6957 5.11524 8.53772C5.57919 8.30611 5.69352 8.29496 7.60807 8.29432L9.34675 8.29372V7.29763V6.30155H9.22767C8.8557 6.30155 8.38021 5.9671 8.17965 5.56444C8.08071 5.36582 8.08043 5.36168 8.08043 4.15V2.93477L8.21848 2.6824ZM18.6932 9.58326C18.5383 9.42974 18.4287 9.35974 18.2699 9.31304C18.0784 9.25666 17.4101 9.25025 11.9826 9.25276C6.1098 9.25545 5.66028 9.23569 5.43126 9.45075C5.39215 9.48747 5.35947 9.53104 5.30732 9.58274C5.24748 9.64204 5.19797 9.67989 5.15705 9.72545C4.94331 9.96348 4.96415 10.4121 4.97434 15.2286L4.98499 20.2667L5.07202 20.4261C5.18917 20.6406 5.42816 20.8624 5.6483 20.9609C5.82763 21.0412 5.88271 21.0419 12 21.0424L18.1708 21.0429L18.3726 20.9497C18.6105 20.8399 18.8028 20.6598 18.9261 20.4314L19.015 20.2667L19.0256 15.2286C19.0358 10.4116 19.0566 9.9634 18.843 9.72561C18.8022 9.68015 18.7528 9.64239 18.6932 9.58326ZM10.5206 10.6748C10.5714 10.6528 10.6382 10.5958 10.6702 10.5472L10.7281 10.4594L10.7318 10.5665C10.7338 10.6254 10.7605 10.7111 10.791 10.7569L10.8466 10.8402L10.767 10.8729C10.7233 10.8908 10.6528 10.951 10.6104 11.0066L10.5333 11.1077L10.5329 10.9983C10.5327 10.9381 10.5092 10.8497 10.4807 10.8017L10.4289 10.7145L10.5206 10.6748ZM9.01063 10.923C9.18898 10.9134 9.45537 10.7016 9.55476 10.4903C9.59876 10.3968 9.64813 10.3874 9.6212 10.4777C9.59997 10.5489 9.62433 10.7942 9.66317 10.9003C9.68264 10.9534 9.73688 11.0454 9.78373 11.1045L9.86888 11.2121L9.74162 11.2479C9.67162 11.2675 9.57535 11.3147 9.52766 11.3527C9.42262 11.4364 9.28162 11.616 9.25754 11.6967C9.22785 11.7962 9.19768 11.7501 9.21571 11.6328C9.24866 11.4186 9.14937 11.1284 8.99301 10.982L8.93426 10.9271L9.01063 10.923ZM8.30189 12.9846C8.30613 12.9704 8.51523 12.8366 9.35542 12.3108L9.78269 12.0434L10.5925 12.2807C11.0615 12.4182 11.3996 12.5271 11.3958 12.5395C11.3923 12.5513 11.1261 12.7832 10.8043 13.0548L10.2193 13.5487L9.25843 13.2738C8.72996 13.1227 8.29952 12.9925 8.30189 12.9846ZM10.6068 13.6418C10.6184 13.6268 10.8892 13.3934 11.2086 13.123L11.7894 12.6315L12.5572 12.8568L13.325 13.0821L13.3894 13.3002C13.4249 13.4201 13.5263 13.7562 13.6147 14.047C13.7032 14.3378 13.7738 14.5815 13.7717 14.5886C13.7696 14.5957 13.0519 14.3917 12.1768 14.1352C10.8846 13.7565 10.5897 13.6639 10.6068 13.6418ZM13.9331 14.008C13.8145 13.6202 13.7121 13.2774 13.7056 13.2462L13.6938 13.1895L14.5604 13.4438L15.4271 13.698L15.7585 14.4156C15.9408 14.8103 16.1057 15.1713 16.125 15.2179L16.1601 15.3025L15.1544 15.0078L14.1488 14.7131L13.9331 14.008ZM8.71147 14.5046C8.4292 13.8596 8.19999 13.3261 8.2021 13.3191C8.20421 13.312 8.63069 13.4307 9.14985 13.5828L10.0938 13.8595L10.1056 13.9466C10.1121 13.9945 10.1565 14.4738 10.2041 15.0117C10.2518 15.5496 10.3444 16.5766 10.4099 17.2941C10.4753 18.0115 10.524 18.6011 10.5179 18.6043C10.5119 18.6075 10.4162 18.402 10.3051 18.1477C10.0913 17.6579 9.55575 16.4337 8.71147 14.5046ZM10.6873 16.9554C10.5659 15.5634 10.4537 14.265 10.4425 14.1226L10.4296 13.9579L12.0912 14.4448C13.6641 14.9057 13.7513 14.9337 13.724 14.9684C13.7082 14.9885 13.059 15.8409 12.2814 16.8626C11.5039 17.8844 10.8615 18.7184 10.854 18.7161C10.8464 18.7139 10.8141 18.4119 10.7822 18.0451L10.6873 16.9554ZM12.6502 16.8999C13.3873 15.9336 14.0107 15.117 14.0356 15.0854L14.081 15.0279L15.0758 15.3194C16.0138 15.5943 16.0681 15.6127 16.0257 15.6421C16.001 15.6593 15.4636 16.0144 14.8315 16.4314L12.6825 17.849C11.4948 18.6325 11.207 18.8197 11.1955 18.8164C11.1908 18.815 11.2146 18.7785 11.2485 18.7353C11.2824 18.6922 11.9131 17.8662 12.6502 16.8999Z" fill="inherit"/>
</svg>
