<svg width="24" height="24" viewBox="0 0 24 24" fill="none" xmlns="http://www.w3.org/2000/svg">
<path fill-rule="evenodd" clip-rule="evenodd" d="M11.082 2.14233C10.9222 2.22771 10.728 2.40571 10.6506 2.53799C10.5136 2.77188 9.4543 5.51043 6.65873 12.8574C5.90914 14.8273 5.26332 16.4614 5.22353 16.4886C5.18374 16.5158 4.67473 16.624 4.09239 16.7289C3.51005 16.8338 2.91295 16.9684 2.76547 17.0279C2.47667 17.1445 2.35889 17.4089 2.43013 17.781C2.4554 17.9131 2.39793 18.1281 2.28023 18.3417C2.11189 18.6471 2.08244 18.851 2.03147 20.0625C1.97625 21.376 1.98142 21.4467 2.14768 21.6564C2.24627 21.7809 2.43955 21.8962 2.59413 21.9228C2.74411 21.9485 6.88329 21.979 11.7924 21.9906C20.7088 22.0116 20.7184 22.0114 21.0518 21.8373C21.468 21.6198 21.623 21.4502 21.8378 20.9773C22.2635 20.0401 21.8171 18.7679 20.8977 18.298C20.5515 18.121 20.5469 18.1209 15.0248 18.1732C11.9854 18.2019 9.50085 18.1984 9.50377 18.1653C9.50677 18.1321 10.7736 17.1587 12.3191 16.0022C19.771 10.4253 19.5076 10.6451 19.6343 9.8965C19.7284 9.34025 19.2788 8.59732 18.6979 8.3491C18.5502 8.28604 18.2257 8.2344 17.9765 8.2344C17.4482 8.2344 17.9686 7.87797 12.2228 12.1755C10.2114 13.6799 8.55106 14.8962 8.53321 14.8784C8.48908 14.8342 9.14299 13.0223 10.6945 8.8892C12.5852 3.85258 12.7517 3.37654 12.7517 3.00828C12.7517 2.22546 11.8258 1.74525 11.082 2.14233ZM11.9552 2.60479C12.4884 2.82728 12.5617 3.27641 12.1344 3.70306C11.9185 3.91863 11.7802 3.98627 11.5552 3.98627C10.9406 3.98627 10.5649 3.32706 10.9215 2.87434C11.2223 2.49242 11.5076 2.41804 11.9552 2.60479ZM11.2788 4.49521C11.709 4.69096 11.7798 5.21948 11.4235 5.57532C11.099 5.89934 10.59 5.91684 10.2871 5.6143C9.69947 5.02756 10.4894 4.13612 11.2788 4.49521ZM10.4888 6.32732C10.9624 6.49217 11.0575 6.97154 10.7006 7.39502C10.5264 7.60168 10.4207 7.65132 10.1546 7.65132C9.3512 7.65132 9.12847 6.67425 9.85955 6.35673C10.1861 6.21487 10.168 6.2157 10.4888 6.32732ZM9.99894 8.3177C10.261 8.57941 10.2207 9.00639 9.9091 9.2682C9.76795 9.38681 9.56658 9.48385 9.46156 9.48385C9.23525 9.48385 8.86104 9.20939 8.79222 8.9929C8.73057 8.79899 8.87697 8.40632 9.06374 8.26464C9.2868 8.09546 9.80582 8.12487 9.99894 8.3177ZM18.486 8.79665C18.84 8.98923 19.1749 9.4567 19.1749 9.75815C19.1749 10.1745 18.9394 10.5447 18.5568 10.7296C18.1139 10.9437 17.919 10.9435 17.4962 10.7281C17.0918 10.5221 16.7943 9.96064 16.881 9.56698C16.9892 9.07445 17.4986 8.66205 18.0084 8.65413C18.1237 8.65238 18.3387 8.71644 18.486 8.79665ZM16.2978 10.4368C16.8991 10.6876 17.1122 11.5105 16.7118 12.0347C16.1509 12.7691 14.9645 12.4536 14.7898 11.5237C14.718 11.1412 14.963 10.6724 15.3406 10.4703C15.6854 10.2855 15.9161 10.2775 16.2978 10.4368ZM14.2481 12.0516C14.5611 12.2193 14.8373 12.6553 14.8368 12.981C14.8364 13.2823 14.554 13.7017 14.2433 13.862C13.6097 14.1893 12.7513 13.6957 12.7521 13.0044C12.7525 12.5993 13.0169 12.1711 13.3582 12.023C13.7214 11.8652 13.9115 11.8714 14.2481 12.0516ZM12.4373 13.796C12.7207 14.0791 12.8171 14.5785 12.6495 14.8956C12.5034 15.172 12.0288 15.4812 11.7507 15.4812C11.4006 15.4812 10.9743 15.1473 10.8435 14.7704C10.513 13.8187 11.7206 13.0804 12.4373 13.796ZM10.3143 15.1973C10.8408 15.5419 10.8368 16.4119 10.3072 16.7343C9.57634 17.1793 8.70972 16.6114 8.86429 15.7887C8.91459 15.521 9.2375 15.1382 9.49843 15.037C9.67911 14.9669 10.0836 15.0464 10.3143 15.1973ZM8.43844 16.6487C8.69429 16.8497 8.85895 17.2987 8.78488 17.5935C8.75535 17.7109 8.6429 17.9021 8.53487 18.0184C8.37588 18.1899 8.26051 18.23 7.92768 18.23C7.31489 18.23 7.27769 18.1319 7.58024 17.3127C7.71997 16.9343 7.85427 16.5923 7.8788 16.5527C7.95537 16.429 8.21564 16.4737 8.43844 16.6487ZM3.3569 17.4062C3.47268 17.7371 3.36015 18.0516 3.10281 18.1161C2.65819 18.2275 2.34838 17.7523 2.60781 17.357C2.80526 17.056 3.24445 17.0848 3.3569 17.4062ZM2.76021 17.3601C2.65819 17.4314 2.57477 17.5568 2.57477 17.6388C2.57477 17.797 2.82102 18.0634 2.96734 18.0634C3.08988 18.0634 3.25271 17.8518 3.18339 17.7826C3.08871 17.6881 3.08379 17.4803 3.1763 17.4803C3.22785 17.4803 3.22076 17.4301 3.1587 17.3554C3.02882 17.1991 2.98969 17.1995 2.76021 17.3601ZM20.5609 18.8058C21.89 19.4085 21.5833 21.3412 20.1397 21.4608C19.2602 21.5336 18.6629 21.0089 18.6078 20.115C18.5814 19.6857 18.6075 19.558 18.772 19.3129C18.9967 18.9781 19.5931 18.6457 19.9642 18.6483C20.1036 18.6493 20.3721 18.7202 20.5609 18.8058ZM17.2888 18.9631C18.3022 19.5558 18.0916 21.0801 16.9522 21.3987C15.8206 21.7151 14.8697 20.5222 15.3865 19.4345C15.6914 18.7929 16.6091 18.5655 17.2888 18.9631ZM14.0812 19.0496C14.4051 19.2863 14.5957 19.5928 14.6444 19.9559C14.7849 21.0018 13.7793 21.703 12.8413 21.2133C11.9225 20.7335 11.9323 19.4025 12.8577 18.9728C13.2664 18.7829 13.7586 18.8138 14.0812 19.0496ZM10.9099 19.0692C12.12 19.7483 11.3994 21.6661 10.0685 21.3082C9.66477 21.1997 9.26903 20.7995 9.19946 20.4295C9.12547 20.0356 9.20814 19.5791 9.39057 19.3739C9.82318 18.8874 10.3851 18.7748 10.9099 19.0692ZM8.3245 19.4491C8.55548 19.7422 8.56023 20.4168 8.33392 20.7873C7.90582 21.4884 6.83508 21.4653 6.46303 20.7469L6.33916 20.5077L7.18885 19.8712C7.65624 19.5211 8.06407 19.2336 8.0951 19.2321C8.12621 19.2307 8.22948 19.3284 8.3245 19.4491Z" fill="inherit"/>
</svg>
