<svg width="24" height="24" viewBox="0 0 24 24" fill="none" xmlns="http://www.w3.org/2000/svg">
<path d="M6.00049 7H2.78049C2.41049 7 2.04049 7.32 2.09049 7.84L3.65049 17.83C3.65049 17.83 5.50049 10.47 5.86049 8.7C5.97049 8.17 6.47049 8 6.84049 8H12.0005C12.0005 8 11.3005 5.92 11.2305 5.69C11.1105 5.25 10.8905 5 10.4505 5H7.14049C6.78049 5 6.44049 5.23 6.34049 5.64C6.25049 6.04 6.00049 7 6.00049 7ZM10.8805 7H6.88049C6.88049 7 7.30049 6 7.75049 6H9.88049C10.3605 6 10.8805 7 10.8805 7ZM4.67049 18.25C4.36049 18.72 3.91049 19 3.41049 19H19.1405C19.6805 19 20.0605 18.69 20.1705 18.17C20.6105 15.98 21.8505 9.73 21.8505 9.73C21.9205 9.23 21.5505 9 21.2305 9H18.0005V7.53C18.0005 7.37 17.7405 7 17.3405 7H13.5805C13.0605 7 12.7105 7.58 12.7105 7.58L12.0005 9H7.59049C7.27049 9 6.96049 9.19 6.90049 9.5C6.90049 9.5 5.31049 16.2 5.18049 16.83C5.11049 17.2 4.96049 17.82 4.67049 18.25ZM17.3805 9H13.0005C13.0005 9 13.5805 8 14.1305 8H16.4205C17.1305 8 17.3805 9 17.3805 9Z" fill="inherit"/>
</svg>
