<svg width="18" height="20" viewBox="0 0 18 20" fill="none" xmlns="http://www.w3.org/2000/svg">
<path fill-rule="evenodd" clip-rule="evenodd" d="M5.38238 0C4.32859 0 3.35207 0.552897 2.8099 1.45651L0.392507 5.4855C0.299258 5.64092 0.25 5.81876 0.25 6V19C0.25 19.5523 0.697715 20 1.25 20H16.75C17.3023 20 17.75 19.5523 17.75 19V6C17.75 5.84475 17.7139 5.69164 17.6444 5.55279L15.6972 1.65836C15.189 0.642009 14.1502 0 13.0139 0H5.38238ZM4.52489 2.4855C4.70561 2.1843 5.03112 2 5.38238 2H8.25V5H3.01619L4.52489 2.4855ZM10.25 5V2H13.0139C13.3927 2 13.739 2.214 13.9084 2.55279L15.132 5H10.25ZM2.25 7V18H15.75V7H2.25ZM9.86719 15C9.3149 15 8.86719 15.4477 8.86719 16C8.86719 16.5523 9.3149 17 9.86719 17H13.2422C13.7945 17 14.2422 16.5523 14.2422 16C14.2422 15.4477 13.7945 15 13.2422 15H9.86719Z" fill="inherit"/>
</svg>
