<svg width="24" height="24" viewBox="0 0 24 24" fill="none" xmlns="http://www.w3.org/2000/svg">
<path fill-rule="evenodd" clip-rule="evenodd" d="M9.33317 3.6665C7.67551 3.6665 6.33317 5.0089 6.33317 6.6639C6.33317 8.31889 7.67551 9.66129 9.33317 9.66129C10.9908 9.66129 12.3332 8.31889 12.3332 6.6639C12.3332 5.0089 10.9908 3.6665 9.33317 3.6665ZM4.33317 6.6639C4.33317 3.9031 6.57217 1.6665 9.33317 1.6665C12.0942 1.6665 14.3332 3.9031 14.3332 6.6639C14.3332 9.42469 12.0942 11.6613 9.33317 11.6613C6.57217 11.6613 4.33317 9.42469 4.33317 6.6639ZM13.6665 10.6665C13.6665 8.64146 15.3081 6.99984 17.3332 6.99984C19.3582 6.99984 20.9998 8.64146 20.9998 10.6665C20.9998 12.6915 19.3582 14.3332 17.3332 14.3332C15.3081 14.3332 13.6665 12.6915 13.6665 10.6665ZM17.3332 8.99984C16.4127 8.99984 15.6665 9.74603 15.6665 10.6665C15.6665 11.587 16.4127 12.3332 17.3332 12.3332C18.2536 12.3332 18.9998 11.587 18.9998 10.6665C18.9998 9.74603 18.2536 8.99984 17.3332 8.99984ZM6.6665 15.6587C5.00943 15.6587 3.6665 17.0014 3.6665 18.658V20.321H14.9998V18.658C14.9998 17.0014 13.6569 15.6587 11.9998 15.6587H6.6665ZM1.6665 18.658C1.6665 15.8964 3.9053 13.6587 6.6665 13.6587H11.9998C14.761 13.6587 16.9998 15.8964 16.9998 18.658V21.321C16.9998 21.8733 16.5521 22.321 15.9998 22.321H2.6665C2.11422 22.321 1.6665 21.8733 1.6665 21.321V18.658ZM20.3332 19.3332C20.3332 18.0445 19.2885 16.9998 17.9998 16.9998V14.9998C20.3931 14.9998 22.3332 16.9399 22.3332 19.3332V21.3332C22.3332 21.8855 21.8855 22.3332 21.3332 22.3332H17.9998V20.3332H20.3332V19.3332Z" fill="inherit"/>
</svg>
