<svg width="22" height="22" viewBox="0 0 22 22" fill="none" xmlns="http://www.w3.org/2000/svg">
<path fill-rule="evenodd" clip-rule="evenodd" d="M8.33268 2.66675C6.67502 2.66675 5.33268 4.00915 5.33268 5.66414C5.33268 7.31913 6.67502 8.66153 8.33268 8.66153C9.99034 8.66153 11.3327 7.31913 11.3327 5.66414C11.3327 4.00915 9.99034 2.66675 8.33268 2.66675ZM3.33268 5.66414C3.33268 2.90335 5.57168 0.666748 8.33268 0.666748C11.0937 0.666748 13.3327 2.90335 13.3327 5.66414C13.3327 8.42493 11.0937 10.6615 8.33268 10.6615C5.57168 10.6615 3.33268 8.42493 3.33268 5.66414ZM12.666 9.66675C12.666 7.6417 14.3076 6.00008 16.3327 6.00008C18.3577 6.00008 19.9993 7.6417 19.9993 9.66675C19.9993 11.6918 18.3577 13.3334 16.3327 13.3334C14.3076 13.3334 12.666 11.6918 12.666 9.66675ZM16.3327 8.00008C15.4122 8.00008 14.666 8.74627 14.666 9.66675C14.666 10.5872 15.4122 11.3334 16.3327 11.3334C17.2532 11.3334 17.9993 10.5872 17.9993 9.66675C17.9993 8.74627 17.2532 8.00008 16.3327 8.00008ZM5.66602 14.6589C4.00894 14.6589 2.66602 16.0016 2.66602 17.6583V19.3213H13.9993V17.6583C13.9993 16.0016 12.6564 14.6589 10.9993 14.6589H5.66602ZM0.666016 17.6583C0.666016 14.8966 2.90481 12.6589 5.66602 12.6589H10.9993C13.7605 12.6589 15.9993 14.8966 15.9993 17.6583V20.3213C15.9993 20.8735 15.5516 21.3213 14.9993 21.3213H1.66602C1.11373 21.3213 0.666016 20.8735 0.666016 20.3213V17.6583ZM19.3327 18.3334C19.3327 17.0447 18.288 16.0001 16.9993 16.0001V14.0001C19.3926 14.0001 21.3327 15.9402 21.3327 18.3334V20.3334C21.3327 20.8857 20.885 21.3334 20.3327 21.3334H16.9993V19.3334H19.3327V18.3334Z" fill="inherit"/>
</svg>
