<svg width="24" height="24" viewBox="0 0 24 24" fill="none" xmlns="http://www.w3.org/2000/svg">
<path fill-rule="evenodd" clip-rule="evenodd" d="M11.5321 3.02152C9.70485 3.23687 8.03577 4.35038 7.04489 6.01511C5.63106 8.3904 5.73064 11.4549 7.29636 13.7552C7.56433 14.1488 8.16766 14.8005 8.52378 15.0808C9.73497 16.0342 11.1316 16.4792 12.5485 16.363C13.3397 16.2982 14.0392 16.097 14.7341 15.7345C15.3062 15.4361 15.8906 15.0176 16.0062 14.8236C16.0901 14.6828 16.0413 14.5951 15.7599 14.3812C15.6188 14.2739 15.4314 14.0934 15.3435 13.9802C15.2371 13.8432 15.1572 13.7743 15.1049 13.7743C15.0616 13.7743 14.8951 13.8713 14.7349 13.9899C14.2119 14.3771 13.513 14.6757 12.866 14.7885C12.3425 14.8797 11.5207 14.8461 11.0439 14.7141C9.22769 14.2113 7.91435 12.704 7.52357 10.674C7.42752 10.1749 7.41858 9.30987 7.50416 8.79346C7.78454 7.10128 8.82832 5.64557 10.2565 4.95479C10.8804 4.65304 11.413 4.53408 12.1386 4.53435C13.1113 4.53473 13.938 4.81047 14.761 5.40917C14.9165 5.52222 15.0675 5.61476 15.0967 5.61476C15.1259 5.61476 15.2717 5.47993 15.4207 5.31514C15.5696 5.15039 15.7573 4.97874 15.8377 4.93374C16.1314 4.76929 16.1194 4.60919 15.7931 4.33989C15.0055 3.69003 14.1176 3.26993 13.1265 3.07825C12.7525 3.00596 11.9167 2.97618 11.5321 3.02152ZM16.3822 5.15027C15.9629 5.31255 15.6351 5.62909 15.4472 6.05324C15.1757 6.66619 15.2367 7.35857 15.6092 7.88951C15.9505 8.3763 16.5288 8.63149 17.0951 8.54532C17.601 8.4683 18.0704 8.08492 18.3005 7.56065C18.4113 7.30812 18.4284 7.23053 18.441 6.9194C18.4499 6.70325 18.4385 6.49545 18.4117 6.3856C18.2925 5.89592 17.9454 5.44295 17.5212 5.22344C17.3098 5.11402 17.2491 5.10067 16.922 5.09194C16.6438 5.0845 16.5166 5.09827 16.3822 5.15027ZM16.4753 10.8605C15.6846 11.0944 15.1834 11.917 15.294 12.799C15.4315 13.8953 16.4764 14.5826 17.4156 14.1944C17.8273 14.0243 18.1983 13.6306 18.3488 13.2039C18.4625 12.8815 18.4765 12.3422 18.3793 12.0204C18.1129 11.1372 17.2718 10.6249 16.4753 10.8605ZM3.29983 14.655C3.02257 14.7052 2.63608 14.9274 2.42804 15.1563C2.31653 15.2789 2.20388 15.4589 2.12523 15.6401C2.00288 15.9219 2 15.9391 2 16.3861C2 16.8222 2.00523 16.8557 2.11144 17.1024C2.31265 17.5697 2.72419 17.951 3.1687 18.082C3.26808 18.1112 3.45837 18.1241 3.65397 18.1146C3.9253 18.1015 4.01262 18.0801 4.21102 17.9779C4.53993 17.8085 4.82783 17.4969 4.99095 17.1339C5.11785 16.8514 5.11958 16.8413 5.11958 16.3881C5.11958 15.9655 5.11185 15.9103 5.02347 15.7028C4.70021 14.9435 4.01321 14.5259 3.29983 14.655ZM20.1976 14.654C19.6404 14.7568 19.2285 15.1112 18.9755 15.7052C18.8883 15.91 18.8804 15.9667 18.8804 16.3881C18.8804 16.8413 18.8821 16.8514 19.009 17.1339C19.1714 17.4953 19.4596 17.8077 19.789 17.9793C20.0132 18.0961 20.0437 18.1019 20.4402 18.1019C20.8367 18.1019 20.8672 18.0961 21.0914 17.9793C21.4208 17.8077 21.709 17.4953 21.8714 17.1339C21.9983 16.8512 22 16.8416 22 16.3861C22 15.9292 21.9987 15.9217 21.8693 15.6337C21.5555 14.9351 20.8655 14.5308 20.1976 14.654ZM5.20586 17.6222C5.10988 17.7674 4.93813 17.9749 4.82419 18.0835C4.60049 18.2967 4.55802 18.432 4.67764 18.5505C4.79033 18.6622 5.64887 19.2166 6.09903 19.4684C7.13244 20.0464 8.4087 20.5239 9.52166 20.7488C12.7473 21.4009 15.9842 20.775 18.7244 18.9694C19.5226 18.4435 19.5223 18.4443 19.113 18.0083C18.9645 17.85 18.7932 17.6391 18.7324 17.5395C18.6517 17.4073 18.5993 17.3584 18.5385 17.3584C18.4926 17.3584 18.2904 17.4693 18.089 17.6049C16.621 18.5935 14.8557 19.2378 13.1265 19.4161C12.6344 19.4668 11.3472 19.4667 10.8858 19.4159C9.08915 19.2181 7.43889 18.618 5.91924 17.6097C5.71085 17.4715 5.50433 17.3584 5.46035 17.3584C5.40128 17.3584 5.33463 17.4274 5.20586 17.6222Z" fill="inherit"/>
</svg>
