<svg width="24" height="24" viewBox="0 0 24 24" fill="none" xmlns="http://www.w3.org/2000/svg">
<path fill-rule="evenodd" clip-rule="evenodd" d="M11.6441 2.03378C10.5717 2.23972 9.92845 3.39926 10.3375 4.38943C10.3919 4.52114 10.4325 4.63208 10.4278 4.63595C10.4231 4.63982 10.3022 4.70016 10.1591 4.77001C9.27681 5.20087 8.52204 5.98706 8.13973 6.87339C7.9227 7.37652 7.82678 7.81661 7.82205 8.33046C7.81977 8.57796 7.8329 8.86642 7.85119 8.97148L7.88444 9.16252L7.77115 9.13822C7.49573 9.07917 6.98836 9.06618 6.67352 9.11012C4.97845 9.34682 3.63058 10.4821 3.16247 12.0674C2.52479 14.227 3.82095 16.4933 6.05706 17.1284C6.62226 17.289 7.30019 17.3277 7.77367 17.2264C7.88428 17.2027 7.88837 17.2067 7.86447 17.3149C7.80144 17.6002 7.78952 18.0563 7.83626 18.3954C8.06969 20.0903 9.29874 21.4548 10.9913 21.8982C11.3305 21.9871 11.4582 22 12 22C12.5418 22 12.6695 21.9871 13.0087 21.8982C14.1782 21.5918 15.1438 20.8414 15.7145 19.7955C16.1186 19.0549 16.293 18.0277 16.1355 17.3149C16.1116 17.2067 16.1157 17.2027 16.2263 17.2264C16.5046 17.2859 17.0107 17.2991 17.3265 17.255C19.0216 17.0183 20.3694 15.883 20.8375 14.2977C21.4752 12.1381 20.179 9.87182 17.9429 9.23667C17.3789 9.07643 16.699 9.03738 16.2289 9.13822L16.1156 9.16252L16.1488 8.97148C16.1671 8.86642 16.1802 8.57796 16.1779 8.33046C16.1646 6.87261 15.2296 5.44821 13.8409 4.77001C13.6978 4.70016 13.5769 4.63982 13.5722 4.63595C13.5675 4.63208 13.6081 4.52114 13.6625 4.38943C14.187 3.11979 13.0287 1.7679 11.6441 2.03378ZM12.2812 3.24411C12.4587 3.3327 12.6003 3.55812 12.6003 3.75228C12.6003 4.05002 12.3045 4.33923 12 4.33923C11.6955 4.33923 11.3997 4.05002 11.3997 3.75228C11.3997 3.56411 11.5413 3.33324 11.7103 3.24602C11.9034 3.14636 12.084 3.14577 12.2812 3.24411ZM12.3247 6.72622C13.0684 6.86141 13.6523 7.48534 13.7812 8.28268C13.8477 8.69339 13.5005 9.43419 12.6857 10.6203C12.3754 11.0718 12.0943 11.4755 12.0608 11.5172C11.9871 11.6093 12.0451 11.6755 11.4467 10.8152C10.7575 9.82412 10.3456 9.09283 10.2351 8.66361C10.1332 8.26774 10.3485 7.65446 10.7314 7.25005C11.1537 6.80405 11.7231 6.61685 12.3247 6.72622ZM7.4331 11.4787C7.82581 11.5809 8.53557 11.9579 9.38258 12.5142C9.84269 12.8164 10.2541 13.0904 10.2968 13.1231C10.3909 13.1951 10.4586 13.1385 9.5788 13.7235C8.84112 14.214 8.28556 14.5389 7.86123 14.7279C7.40885 14.9295 7.2767 14.9552 6.94386 14.9059C6.16219 14.7903 5.55837 14.2062 5.42851 13.4399C5.30569 12.7151 5.7303 11.9259 6.41063 11.6147C6.82152 11.4266 7.09385 11.3904 7.4331 11.4787ZM17.3475 11.5213C17.6114 11.5936 17.9936 11.8439 18.18 12.0663C19.0505 13.105 18.4594 14.6617 17.101 14.908C16.7725 14.9675 16.5327 14.9103 15.9412 14.6313C15.5514 14.4474 14.1046 13.5493 13.7032 13.242C13.6091 13.1699 13.5414 13.2266 14.4212 12.6416C15.3784 12.0051 16.0557 11.6327 16.5422 11.4754C16.7227 11.417 17.0314 11.4346 17.3475 11.5213ZM12.6003 13.1825V13.7695H12H11.3997V13.1825V12.5956H12H12.6003V13.1825ZM12.388 15.3078C13.1257 16.3514 13.6125 17.1863 13.7468 17.638C13.9282 18.248 13.4631 19.1436 12.792 19.4767C11.6873 20.0249 10.422 19.3393 10.2188 18.0824C10.1519 17.6692 10.4994 16.9305 11.3251 15.7305C11.9949 14.7571 11.9737 14.7868 11.9998 14.787C12.0109 14.7871 12.1856 15.0215 12.388 15.3078Z" fill="inherit"/>
</svg>
