<svg width="24" height="24" viewBox="0 0 24 24" fill="none" xmlns="http://www.w3.org/2000/svg">
<path fill-rule="evenodd" clip-rule="evenodd" d="M7.34242 2.03287C6.91361 2.09725 6.56656 2.25216 5.91695 2.6691C4.28405 3.7171 3.15621 5.08447 2.62745 6.65717C2.37105 7.41978 2.31396 7.77793 2.31396 8.62409C2.31396 9.603 2.44336 10.2393 2.81746 11.1003L2.96657 11.4434L3.32359 10.8871C4.26683 9.41734 5.63258 8.31315 7.51735 7.49652C8.5252 7.05981 9.06349 6.65307 9.50219 5.99667C9.66638 5.751 9.80482 5.48023 9.87266 5.27202C9.96916 4.97582 9.98094 4.88224 9.98094 4.41322C9.98094 3.91917 9.97316 3.86542 9.85435 3.53764C9.46722 2.46986 8.458 1.86526 7.34242 2.03287ZM15.8922 2.0322C14.6681 2.22939 13.8153 3.54224 14.0486 4.87032C14.2378 5.94753 15.0107 6.83126 16.2418 7.37828C17.42 7.90176 18.0215 8.24367 18.7829 8.82266C19.6102 9.45185 20.3722 10.2935 20.8218 11.0748L21.0365 11.4479L21.1274 11.2687C21.2806 10.9671 21.5104 10.279 21.5919 9.87837C21.9268 8.23198 21.6141 6.63373 20.6705 5.16863C20.1217 4.31665 19.4262 3.60103 18.5108 2.94674C17.3967 2.15027 16.6905 1.90366 15.8922 2.0322ZM2.00036 11.8815C1.99792 14.2199 2.00688 14.7367 2.05612 15.0951C2.42599 17.7866 4.57239 20.1105 7.76897 21.2803C10.0245 22.1057 12.6877 22.2266 15.1381 21.6148C18.4417 20.7899 21.0419 18.5606 21.773 15.9261C21.9925 15.1351 22.0028 14.9518 21.9996 11.8815C21.997 9.43551 21.9907 9.13565 21.9477 9.42748C21.7934 10.4761 21.4296 11.3736 20.786 12.2932C19.3659 14.3223 16.9321 15.6997 13.8893 16.1962C13.042 16.3344 10.9428 16.335 10.0996 16.1972C7.97832 15.8505 6.09262 15.047 4.72035 13.9048C3.20267 12.6417 2.303 11.132 2.05223 9.42748C2.00929 9.13565 2.00296 9.43551 2.00036 11.8815ZM12.9667 18.0814C13.7257 18.9865 13.9182 19.2416 13.8809 19.2934C13.855 19.3295 13.4212 19.85 12.9169 20.4501L12.0001 21.5412L11.0352 20.3929C10.5046 19.7613 10.0836 19.2255 10.0998 19.2023C10.1514 19.1278 11.981 16.9392 11.9934 16.937C12 16.9359 12.438 17.4509 12.9667 18.0814ZM11.5861 18.7013C11.3687 18.964 11.181 19.1936 11.1691 19.2116C11.1572 19.2295 11.3386 19.4747 11.5723 19.7563L11.997 20.2683L12.3783 19.8121C12.5879 19.5611 12.7808 19.3268 12.807 19.2912C12.8445 19.2402 12.7704 19.1276 12.4551 18.7566C12.2353 18.4981 12.0389 18.2724 12.0185 18.2552C11.9981 18.2379 11.8036 18.4387 11.5861 18.7013Z" fill="inherit"/>
</svg>
