<svg width="24" height="24" viewBox="0 0 24 24" fill="none" xmlns="http://www.w3.org/2000/svg">
<path fill-rule="evenodd" clip-rule="evenodd" d="M8.38238 2C7.32859 2 6.35207 2.5529 5.8099 3.45651L3.39251 7.4855C3.29926 7.64092 3.25 7.81876 3.25 8V21C3.25 21.5523 3.69772 22 4.25 22H19.75C20.3023 22 20.75 21.5523 20.75 21V8C20.75 7.84475 20.7139 7.69164 20.6444 7.55279L18.6972 3.65836C18.189 2.64201 17.1502 2 16.0139 2H8.38238ZM7.52489 4.4855C7.70561 4.1843 8.03112 4 8.38238 4H11.25V7H6.01619L7.52489 4.4855ZM13.25 7V4H16.0139C16.3927 4 16.739 4.214 16.9084 4.55279L18.132 7H13.25ZM5.25 9V20H18.75V9H5.25ZM12.8672 17C12.3149 17 11.8672 17.4477 11.8672 18C11.8672 18.5523 12.3149 19 12.8672 19H16.2422C16.7945 19 17.2422 18.5523 17.2422 18C17.2422 17.4477 16.7945 17 16.2422 17H12.8672Z" fill="inherit"/>
</svg>
