<svg width="24" height="19" viewBox="0 0 24 19" fill="none" xmlns="http://www.w3.org/2000/svg">
<path d="M12.0024 17.9999C11.9763 17.9999 11.9506 17.9938 11.927 17.9821C11.9035 17.9704 11.8827 17.9534 11.8662 17.9323L1.41273 4.58281C1.38586 4.54709 1.37255 4.50224 1.37537 4.45688C1.37819 4.41152 1.39693 4.36885 1.428 4.33707L4.80128 1.04915C4.83321 1.01802 4.8751 1.00049 4.91874 1H19.0825C19.1262 1.00061 19.168 1.01812 19.2 1.04915L22.5709 4.33216C22.6024 4.36364 22.6215 4.40626 22.6246 4.4517C22.6276 4.49714 22.6144 4.54213 22.5874 4.57789L12.1433 17.9323C12.1265 17.9542 12.1049 17.9717 12.0805 17.9835C12.056 17.9952 12.0293 18.0008 12.0024 17.9999ZM4.92108 1.12287C4.90635 1.12287 4.89213 1.12856 4.88115 1.13884L1.51021 4.42185C1.49988 4.43307 1.49411 4.44805 1.49411 4.46363C1.49411 4.47921 1.49988 4.49418 1.51021 4.5054L11.9636 17.8537C11.9692 17.8609 11.9761 17.8667 11.9841 17.8707C11.992 17.8747 12.0006 17.8769 12.0094 17.877C12.0183 17.8769 12.0269 17.8747 12.0348 17.8707C12.0428 17.8667 12.0497 17.8609 12.0553 17.8537L22.5087 4.5054C22.5188 4.49404 22.5243 4.47912 22.5243 4.46363C22.5243 4.44813 22.5188 4.43321 22.5087 4.42185L19.1225 1.13884C19.1115 1.12856 19.0973 1.12287 19.0825 1.12287H4.92108Z" fill="inherit"/>
<path d="M6.98786 5.46251C6.96987 5.4584 6.95305 5.44992 6.93877 5.43775C6.92449 5.42558 6.91314 5.41007 6.90564 5.39248L5.5279 2.15615C5.51987 2.13746 5.51644 2.11696 5.51791 2.09653C5.51939 2.07609 5.52572 2.05637 5.53635 2.03915C5.54697 2.02193 5.56154 2.00777 5.57874 1.99794C5.59593 1.98812 5.6152 1.98295 5.63479 1.98291H7.5352C7.55721 1.98286 7.57879 1.98929 7.59748 2.00146C7.61617 2.01362 7.63122 2.03104 7.64091 2.05172L8.25519 3.37131H9.03274C9.05674 3.37123 9.08018 3.37884 9.09992 3.39312C9.11966 3.4074 9.13475 3.42766 9.14315 3.45117C9.15141 3.47453 9.15268 3.49997 9.14681 3.5241C9.14094 3.54824 9.12819 3.56994 9.11026 3.58633L7.09357 5.43548C7.07216 5.45523 7.0446 5.46615 7.01605 5.4662C7.00653 5.46641 6.99704 5.46517 6.98786 5.46251Z" fill="inherit"/>
<path d="M7.57237 5.61132C7.56371 5.58792 7.56211 5.56231 7.56778 5.53792C7.57345 5.51354 7.58612 5.49156 7.60409 5.47494L9.85333 3.40217C9.87414 3.38296 9.90077 3.37208 9.9285 3.37145L10.7166 3.35425C10.7464 3.35417 10.7751 3.36593 10.7969 3.38714C10.8187 3.40836 10.832 3.43744 10.8341 3.46851L10.9797 5.53268C10.9809 5.54941 10.9788 5.56622 10.9736 5.58207C10.9683 5.59791 10.96 5.61247 10.9492 5.62483C10.9382 5.63719 10.925 5.64705 10.9102 5.65382C10.8955 5.66058 10.8795 5.6641 10.8634 5.66415L7.68043 5.68995C7.65697 5.68964 7.63414 5.68197 7.61488 5.66796C7.59562 5.65394 7.58082 5.63422 7.57237 5.61132Z" fill="inherit"/>
<path d="M10.2021 14.0941L3.19715 5.31034C3.18132 5.29047 3.17188 5.26587 3.1702 5.24006C3.16851 5.21424 3.17465 5.18853 3.18776 5.16659C3.20084 5.14483 3.22011 5.12791 3.24287 5.11821C3.26562 5.10851 3.29071 5.10653 3.31461 5.11253L6.72078 5.99103C6.73769 5.99556 6.75342 6.00397 6.76683 6.01566C6.78024 6.02735 6.79099 6.04202 6.7983 6.0586L10.3936 13.9627C10.4057 13.9896 10.4081 14.0204 10.4002 14.049C10.3923 14.0777 10.3747 14.1024 10.3507 14.1185C10.3267 14.1346 10.2979 14.141 10.2697 14.1365C10.2415 14.1321 10.2158 14.117 10.1974 14.0941H10.2021Z" fill="inherit"/>
<path d="M11.5554 15.9309L7.25303 6.20963C7.24484 6.19109 7.24119 6.17071 7.24242 6.15033C7.24365 6.12995 7.24972 6.11022 7.26007 6.0929C7.27055 6.07537 7.28508 6.06089 7.30233 6.0508C7.31957 6.0407 7.33897 6.03532 7.35874 6.03516H10.9223C10.9519 6.03506 10.9804 6.04664 11.0022 6.0676C11.024 6.08856 11.0374 6.11734 11.0398 6.14819L11.7738 15.867C11.7747 15.8949 11.7664 15.9223 11.7504 15.9446C11.7344 15.9669 11.7116 15.9829 11.6857 15.9899C11.676 15.9911 11.6661 15.9911 11.6564 15.9899C11.6361 15.99 11.6162 15.9846 11.5985 15.9743C11.5808 15.9639 11.5659 15.949 11.5554 15.9309Z" fill="inherit"/>
<path d="M6.36572 5.51901L2.79981 4.59874C2.77934 4.59336 2.76063 4.58232 2.74565 4.56677C2.73067 4.55121 2.71997 4.53172 2.71468 4.51035C2.7094 4.48898 2.70971 4.46651 2.7156 4.4453C2.72148 4.4241 2.73272 4.40495 2.74813 4.38986L4.98915 2.19914C5.0028 2.18579 5.0193 2.17603 5.03728 2.17069C5.05526 2.16535 5.07419 2.16457 5.09251 2.16842C5.11093 2.17218 5.12822 2.1805 5.14294 2.19269C5.15765 2.20487 5.16936 2.22057 5.17708 2.23846L6.50549 5.34945C6.51457 5.37041 6.51784 5.39362 6.51494 5.41642C6.51203 5.43923 6.50306 5.46073 6.48904 5.47847C6.478 5.49234 6.46417 5.50349 6.44854 5.51113C6.43291 5.51878 6.41586 5.52273 6.3986 5.5227C6.38753 5.5231 6.37646 5.52186 6.36572 5.51901Z" fill="inherit"/>
<path d="M16.9903 5.46616C16.9617 5.46611 16.9341 5.45519 16.9127 5.43544L14.8937 3.59243C14.8758 3.57604 14.863 3.55434 14.8571 3.53021C14.8513 3.50607 14.8525 3.48064 14.8608 3.45728C14.8692 3.43376 14.8843 3.4135 14.904 3.39922C14.9238 3.38494 14.9472 3.37733 14.9712 3.37741H15.7488L16.363 2.05782C16.3727 2.03714 16.3878 2.01973 16.4065 2.00756C16.4252 1.99539 16.4467 1.98897 16.4688 1.98901H18.368C18.3876 1.98906 18.4069 1.99422 18.424 2.00405C18.4412 2.01387 18.4558 2.02804 18.4664 2.04525C18.4771 2.06247 18.4834 2.0822 18.4849 2.10263C18.4863 2.12307 18.4829 2.14356 18.4749 2.16226L17.0983 5.39243C17.0908 5.41003 17.0795 5.42554 17.0652 5.43771C17.0509 5.44987 17.0341 5.45836 17.0161 5.46247C17.0077 5.46498 16.999 5.46622 16.9903 5.46616Z" fill="inherit"/>
<path d="M16.3203 5.68968L13.1361 5.66879C13.12 5.66874 13.1041 5.66522 13.0894 5.65845C13.0746 5.65169 13.0613 5.64183 13.0504 5.62947C13.0396 5.61711 13.0313 5.60255 13.026 5.5867C13.0208 5.57086 13.0187 5.55405 13.0199 5.53732L13.1655 3.47315C13.1676 3.44208 13.1809 3.413 13.2027 3.39178C13.2245 3.37057 13.2532 3.35881 13.283 3.35889L14.0711 3.37609C14.0988 3.37672 14.1254 3.3876 14.1462 3.40681L16.3955 5.47958C16.4134 5.49607 16.426 5.51787 16.4318 5.54208C16.4375 5.56628 16.4361 5.59175 16.4277 5.61508C16.4193 5.63842 16.4043 5.65853 16.3847 5.67273C16.3651 5.68693 16.3418 5.69456 16.318 5.69459L16.3203 5.68968Z" fill="inherit"/>
<path d="M13.7109 14.1384C13.6911 14.1383 13.6716 14.133 13.6543 14.123C13.637 14.1129 13.6223 14.0985 13.6118 14.0809C13.6013 14.0634 13.5951 14.0434 13.594 14.0227C13.5928 14.002 13.5966 13.9814 13.6052 13.9627L17.2004 6.0586C17.2077 6.04202 17.2185 6.02735 17.2319 6.01566C17.2453 6.00397 17.261 5.99556 17.278 5.99103L20.6841 5.11253C20.708 5.10653 20.7331 5.10851 20.7559 5.11821C20.7786 5.12791 20.7979 5.14483 20.811 5.16659C20.8241 5.18853 20.8302 5.21424 20.8285 5.24006C20.8269 5.26587 20.8174 5.29047 20.8016 5.31034L13.7966 14.0941C13.7861 14.1074 13.773 14.1182 13.7582 14.1258C13.7435 14.1334 13.7273 14.1377 13.7109 14.1384Z" fill="inherit"/>
<path d="M12.3468 16.0019C12.3371 16.0031 12.3272 16.0031 12.3175 16.0019C12.2918 15.9947 12.2693 15.9787 12.2535 15.9564C12.2377 15.934 12.2296 15.9068 12.2305 15.8791L12.9658 6.14307C12.9682 6.11221 12.9816 6.08343 13.0034 6.06247C13.0251 6.04152 13.0537 6.02993 13.0833 6.03003H16.6456C16.6654 6.02998 16.6848 6.03514 16.7022 6.04502C16.7195 6.05491 16.7342 6.06921 16.7448 6.0866C16.7555 6.10399 16.7618 6.12391 16.7631 6.14452C16.7645 6.16513 16.7608 6.18576 16.7525 6.2045L12.4549 15.9258C12.4461 15.9482 12.4311 15.9674 12.4119 15.981C12.3926 15.9945 12.37 16.0018 12.3468 16.0019Z" fill="inherit"/>
<path d="M17.6096 5.52262C17.5923 5.52265 17.5752 5.5187 17.5596 5.51106C17.544 5.50341 17.5302 5.49226 17.5191 5.47839C17.5051 5.46065 17.4961 5.43916 17.4932 5.41635C17.4903 5.39354 17.4936 5.37034 17.5027 5.34938L18.8264 2.23838C18.834 2.22045 18.8457 2.20469 18.8603 2.19243C18.875 2.18017 18.8922 2.17176 18.9106 2.16791C18.929 2.16406 18.948 2.16488 18.9661 2.1703C18.9841 2.17572 19.0007 2.18558 19.0143 2.19906L21.2553 4.38979C21.2707 4.40487 21.282 4.42403 21.2879 4.44523C21.2937 4.46643 21.2941 4.4889 21.2888 4.51027C21.2835 4.53165 21.2728 4.55114 21.2578 4.56669C21.2428 4.58224 21.2241 4.59329 21.2037 4.59866L17.6377 5.51894C17.6285 5.52135 17.6191 5.52259 17.6096 5.52262Z" fill="inherit"/>
</svg>
