<svg width="24" height="24" viewBox="0 0 24 24" fill="none" xmlns="http://www.w3.org/2000/svg">
<path fill-rule="evenodd" clip-rule="evenodd" d="M8.64906 2.55076C7.15398 3.01825 6.5106 3.423 5.00072 4.84658C3.40846 6.34769 3.08203 6.82731 2.51963 8.49427C1.27559 12.1802 2.28729 15.7659 5.3185 18.4159C6.20483 19.1908 7.30226 19.9473 7.75715 20.0971C8.56193 20.3618 8.58902 20.3431 8.75601 19.4049C8.89982 18.5973 8.82582 18.376 8.30224 18.0449C4.884 15.8833 3.52603 12.6611 4.58437 9.22333C5.47907 6.31736 8.71301 4.07006 12 4.07006C15.287 4.07006 18.5209 6.31736 19.4156 9.22333C20.4639 12.6282 19.1626 15.7388 15.7257 18.0449C15.2552 18.3605 15.1633 18.6352 15.2714 19.4062C15.4034 20.3507 15.4249 20.3663 16.2381 20.0984C16.6958 19.9478 17.7952 19.1908 18.6815 18.4159C21.7127 15.7659 22.7244 12.1802 21.4804 8.49427C20.9188 6.82995 20.5876 6.34215 18.9876 4.82259C17.3967 3.31172 16.8804 2.994 15.2398 2.51542C12.8464 1.81747 10.9626 1.82749 8.64906 2.55076ZM10.8587 18.1192C10.26 18.5532 9.76604 19.4711 9.76604 20.1495C9.76604 20.9382 11.0788 22 12.0533 22C13.1201 22 14.234 20.9469 14.234 19.9386C14.234 18.3974 12.0782 17.2351 10.8587 18.1192Z" fill="inherit"/>
</svg>
