<svg width="24" height="24" viewBox="0 0 24 24" fill="none" xmlns="http://www.w3.org/2000/svg">
<path fill-rule="evenodd" clip-rule="evenodd" d="M1.6665 6.66683C1.6665 5.37817 2.71117 4.3335 3.99984 4.3335H19.9998C21.2885 4.3335 22.3332 5.37816 22.3332 6.66683V17.3335C22.3332 18.6222 21.2885 19.6668 19.9998 19.6668H3.99984C2.71117 19.6668 1.6665 18.6222 1.6665 17.3335V6.66683ZM6.35678 17.6668H10.9763C10.8147 16.536 9.84229 15.6668 8.6665 15.6668C7.49091 15.6668 6.51845 16.5361 6.35678 17.6668ZM12.9872 17.6668C12.8172 15.429 10.9476 13.6668 8.6665 13.6668C6.38543 13.6668 4.51592 15.4292 4.34579 17.6668H3.99984C3.81574 17.6668 3.6665 17.5176 3.6665 17.3335V6.66683C3.6665 6.48273 3.81574 6.3335 3.99984 6.3335H19.9998C20.1839 6.3335 20.3332 6.48274 20.3332 6.66683V17.3335C20.3332 17.5176 20.1839 17.6668 19.9998 17.6668H12.9872ZM5.6665 10.0002C5.6665 8.34331 7.00965 7.00016 8.6665 7.00016C10.3234 7.00016 11.6665 8.34331 11.6665 10.0002C11.6665 11.657 10.3234 13.0002 8.6665 13.0002C7.00965 13.0002 5.6665 11.657 5.6665 10.0002ZM8.6665 9.00016C8.11422 9.00016 7.6665 9.44788 7.6665 10.0002C7.6665 10.5524 8.11422 11.0002 8.6665 11.0002C9.21879 11.0002 9.6665 10.5524 9.6665 10.0002C9.6665 9.44788 9.21879 9.00016 8.6665 9.00016ZM12.9998 9.3335C12.9998 8.78121 13.4476 8.3335 13.9998 8.3335H17.9998C18.5521 8.3335 18.9998 8.78121 18.9998 9.3335C18.9998 9.88578 18.5521 10.3335 17.9998 10.3335H13.9998C13.4476 10.3335 12.9998 9.88578 12.9998 9.3335ZM12.9998 13.3335C12.9998 12.7812 13.4476 12.3335 13.9998 12.3335H17.9998C18.5521 12.3335 18.9998 12.7812 18.9998 13.3335C18.9998 13.8858 18.5521 14.3335 17.9998 14.3335H13.9998C13.4476 14.3335 12.9998 13.8858 12.9998 13.3335Z" fill="inherit"/>
</svg>
