<svg width="24" height="24" viewBox="0 0 24 24" fill="none" xmlns="http://www.w3.org/2000/svg">
<path d="M14.3333 3.87625C14.3332 4.3737 14.1398 4.8507 13.7958 5.20233C13.4517 5.55397 12.9852 5.75142 12.4988 5.75125C12.0124 5.75108 11.546 5.55332 11.2022 5.20145C10.8583 4.84959 10.6653 4.37245 10.6654 3.875C10.6656 3.37755 10.859 2.90055 11.203 2.54892C11.3734 2.37481 11.5756 2.23672 11.7981 2.14253C12.0207 2.04835 12.2592 1.99992 12.5 2C12.7408 2.00008 12.9793 2.04868 13.2018 2.14301C13.4242 2.23735 13.6264 2.37557 13.7966 2.5498C13.9669 2.72403 14.1019 2.93084 14.194 3.15843C14.2861 3.38602 14.3334 3.62994 14.3333 3.87625ZM17.0638 12.0013L18 11.3075L15.4541 7.28125C15.3985 7.19492 15.3229 7.12404 15.2339 7.07496C15.145 7.02588 15.0455 7.00012 14.9444 7H10.0556C9.95443 6.99978 9.85484 7.02539 9.76584 7.07451C9.67684 7.12362 9.60124 7.19468 9.54589 7.28125L7 11.3075L7.93622 12.0013L10.0494 9.19625L10.784 10.9487L8.22344 15.75H10.5664L10.9734 22H12.1957V15.75H12.8068V22H14.029L14.436 15.75H16.779L14.2184 10.9475L14.953 9.195L17.0662 12L17.0638 12.0013Z" fill="inherit"/>
</svg>
